<svg enable-background="new 0 0 540 240" viewBox="0 0 540 240" xmlns="http://www.w3.org/2000/svg"><g fill="#0a74ba"><path d="m153 72.2h23.7v42.1h-18.7v-6.8h-11l-4.3 6.8h-19.2zm8.8 9.2-10.2 17h8.5z"/><path d="m428.7 99.8c-5.6 15.8-23.7 14.5-23.7 14.5s-24.2 2.4-18.6-16.7c5.3-18.2 25.9-16.7 25.9-16.7s23.4-1.1 16.4 18.9m-17.8-11.5s-4.1-2.3-7.5 8.3c-3.4 10.7 1.5 9.4 1.5 9.4s4.5 2.4 7.3-7.9c2.8-10.2-1.3-9.8-1.3-9.8"/><path d="m229.7 72.6h-29.7s-8.5-1.3-12.7 8.1c-4.2 9.3-7.6 23.8-7.6 23.8s-3.4 8.1 7.2 8.9h29.7l3-9.8h-17s-2.6-1.7-1.3-7.6 4.2-11.9 4.2-11.9-.4-3.4 5.5-3.4h15.3z"/><path d="m269.7 72.6c14.4.4 7.6 14 7.6 14s-3.8 11.9-7.2 19.5-11.5 7.7-11.5 7.7l-38.2.4 12.3-34 2.6-7.2zm-17.9 8.5-8.5 23.4 5.9.4s2.5.4 4.7-4.2c2.1-4.7 4.7-15.3 4.7-15.3s2.4-6.1-6.8-4.3"/><path d="m295.3 107.4c4.7 2.6 9.6-4.3 9.6-4.3h13s-.2 2.1-5.6 7.3c-5.3 5.1-19.7 3.4-19.7 3.4s-16.2 1.7-16.7-9.8c-.4-11.5 10-19.9 10-19.9s8.8-7.3 25.9-2.8c14.1 3.7 7.5 17.7 7.5 17.7h-27.1c.1.1-1.6 5.8 3.1 8.4m10.5-13.6s1.7-4.9-4.9-5.1-6.2 4.7-6.2 4.7z"/><path d="m333.6 70.1-16.5 43.7h17.1l15-44z"/><path d="m368.2 80.7s-18.8-1.9-23.7 13.9 1.9 20.3 16 20.1 19-1.9 24.4-12.2h-16.9s-.9 4.7-6.4 3.6c-5.6-1.1-.2-11.3-.2-11.3s1.8-8 6.8-6.6c3.8 1.1 2.4 5.3 2.4 5.3h16.7c-.1.1 1.6-14.1-19.1-12.8"/></g><path d="m118.4 123.7-8.4 11.2 318.2-11.2z" fill="#ec2029"/><path d="m425 162.8.3 3.7h2.8l-1.4-14.6h-3.3l-6.6 14.6h2.9l1.6-3.7zm-.3-2.7h-2.3l1.9-4.6h.1zm-15.4-2 .6-3.4h1.3.6s.3 0 .5.1c.3.1.6.2.7.5.2.2.2.5.2.9-.1.6-.3 1-.7 1.4s-.9.5-1.6.5zm6.7-3.7c-.1-.4-.3-.8-.6-1.1s-.6-.6-1-.8-.8-.4-1.3-.5c-.2-.1-.5-.1-.9-.1-.3 0-.7 0-1 0h-3.6l-2.6 14.6h2.8l1-6h1.3c.7 0 1.3.1 1.5.4s.4.8.3 1.5l-.2 2.3v1c0 .3.1.6.3.8h3v-.1c-.2-.2-.4-.5-.4-.8-.1-.3-.1-.7 0-1.1l.3-2.5c.1-.7 0-1.3-.3-1.7-.2-.4-.6-.8-1.2-1 .9-.4 1.5-.9 1.9-1.5s.7-1.2.8-1.9c0-.5 0-1-.1-1.5m-16.6 8.4.3 3.7h2.8l-1.4-14.6h-3.3l-6.6 14.6h2.9l1.6-3.7zm-.2-2.7h-2.3l1.9-4.6h.1zm-7.8-8.2h-2.8l-1.7 9.6c-.1.7-.4 1.3-.8 1.8s-.9.7-1.6.7h-.1c-.5 0-.9-.1-1.2-.4-.2-.3-.4-.6-.4-1 0-.2 0-.3 0-.6 0-.2.1-.4.1-.6l1.7-9.5h-2.8l-1.7 9.3c-.1.3-.1.6-.1.9v.9c.1.5.2 1 .4 1.4s.5.8.9 1.1.8.6 1.3.8 1 .3 1.7.3h.1c.8 0 1.5-.1 2.1-.4s1.1-.6 1.6-1c.4-.4.8-1 1.1-1.6s.5-1.2.6-1.9zm-20.2 12.2c-.5 0-.9-.1-1.2-.4-.2-.3-.4-.6-.4-1 0-.2 0-.3 0-.6 0-.2.1-.4.1-.6l.8-4.5c.1-.7.4-1.3.8-1.8s.9-.7 1.6-.7h.2c.5 0 .9.1 1.2.4.2.3.4.6.4 1v.6c0 .2-.1.4-.1.6l-.8 4.5c-.1.7-.4 1.3-.8 1.8s-.9.7-1.6.7zm0 2.7h.2s.2 0 .2 0c.6.5 1.2.8 2 1s1.7.4 2.9.4l.4-2.3c-.2 0-.5 0-.7 0s-.5 0-.7-.1c-.2 0-.5-.1-.7-.1s-.4-.1-.6-.2c.6-.4 1.1-1 1.5-1.6s.6-1.4.8-2.2l.8-4.6c.1-.3.1-.6.1-.9s0-.6 0-.9c-.1-.5-.2-1-.4-1.4s-.5-.8-.9-1.2c-.4-.3-.8-.6-1.3-.8s-1-.3-1.6-.3h-.2c-.8 0-1.5.1-2.1.4s-1.1.6-1.6 1c-.4.4-.8 1-1.1 1.6s-.5 1.2-.6 1.9l-.8 4.6c-.1.3-.1.6-.1.9v.9c.1.5.2 1 .4 1.4s.5.8.9 1.1.8.6 1.3.8 1 .3 1.7.3h.2zm-10.5-4 .3 3.7h2.8l-1.4-14.6h-3.3l-6.6 14.6h2.9l1.6-3.7zm-.2-2.7h-2.3l1.9-4.6h.1zm-15.8-8.2-.5 2.7h3.6l-2.1 11.9h2.8l2.1-11.9h3.6l.5-2.7zm-14 18.3h2.3l3.6-20.4h-2.3zm-13-6.1c-.5 0-.9-.1-1.2-.4-.2-.3-.4-.6-.4-1 0-.2 0-.3 0-.6 0-.2.1-.4.1-.6l.8-4.5c.1-.7.4-1.3.8-1.8s.9-.7 1.6-.7h.2c.5 0 .9.1 1.2.4.2.3.4.6.4 1v.6c0 .2-.1.4-.1.6l-.8 4.5c-.1.7-.4 1.3-.8 1.8s-.9.7-1.6.7zm-.1 2.7c.8 0 1.5-.1 2.1-.4s1.1-.6 1.6-1c.4-.4.8-1 1.1-1.6s.5-1.2.6-1.9l.8-4.6c.1-.3.1-.6.1-.9s0-.6 0-.9c-.1-.5-.2-1-.4-1.4s-.5-.8-.9-1.2c-.4-.3-.8-.6-1.3-.8s-1-.3-1.6-.3h-.2c-.8 0-1.5.1-2.1.4s-1.1.6-1.6 1c-.4.4-.8 1-1.1 1.6s-.5 1.2-.6 1.9l-.8 4.6c-.1.3-.1.6-.1.9v.9c.1.5.2 1 .4 1.4s.5.8.9 1.1.8.6 1.3.8 1 .3 1.7.3zm-13.3-14.9h-2.8l1.4 14.6h3.3l6.5-14.6h-2.9l-4.7 11.1zm-10.7 14.7h2.8l2.6-14.6h-2.8zm-10.2-14.7-.5 2.7h3.6l-2.1 11.9h2.8l2.1-11.9h3.6l.5-2.7zm-8.8 12.2c-.5 0-.9-.1-1.2-.4-.2-.3-.4-.6-.4-1 0-.2 0-.3 0-.6 0-.2.1-.4.1-.6l.8-4.5c.1-.7.4-1.3.8-1.8s.9-.7 1.6-.7h.2c.5 0 .9.1 1.2.4.2.3.4.6.4 1v.6c0 .2-.1.4-.1.6l-.8 4.5c-.1.7-.4 1.3-.8 1.8s-.9.7-1.6.7zm-.1 2.7c.8 0 1.5-.1 2.1-.4s1.1-.6 1.6-1c.4-.4.8-1 1.1-1.6s.5-1.2.6-1.9l.8-4.6c.1-.3.1-.6.1-.9s0-.6 0-.9c-.1-.5-.2-1-.4-1.4s-.5-.8-.9-1.2c-.4-.3-.8-.6-1.3-.8s-1-.3-1.6-.3h-.2c-.8 0-1.5.1-2.1.4s-1.1.6-1.6 1c-.4.4-.8 1-1.1 1.6s-.5 1.2-.6 1.9l-.8 4.6c-.1.3-.1.6-.1.9v.9c.1.5.2 1 .4 1.4s.5.8.9 1.1.8.6 1.3.8 1 .3 1.7.3zm-9.7-9.6c0 .1-.1.3-.1.4s0 .2-.1.4c0 .1 0 .3-.1.4l-1.4 8.1h2.6l2.6-14.6h-3.1l-4.4 7.8-1.7-7.8h-2.9l-2.6 14.6h2.6l1.4-8.1c0-.1 0-.2.1-.4 0-.1 0-.3.1-.4 0-.1 0-.3.1-.4l1.5 6.6h1.6zm-19.2 6.9c-.5 0-.9-.1-1.2-.4-.2-.3-.4-.6-.4-1 0-.2 0-.3 0-.6 0-.2.1-.4.1-.6l.8-4.5c.1-.7.4-1.3.8-1.8s.9-.7 1.6-.7h.2c.5 0 .9.1 1.2.4.2.3.4.6.4 1v.6c0 .2-.1.4-.1.6l-.8 4.5c-.1.7-.4 1.3-.8 1.8s-.9.7-1.6.7zm0 2.7c.8 0 1.5-.1 2.1-.4s1.1-.6 1.6-1c.4-.4.8-1 1.1-1.6s.5-1.2.6-1.9l.8-4.6c.1-.3.1-.6.1-.9s0-.6 0-.9c-.1-.5-.2-1-.4-1.4s-.5-.8-.9-1.2c-.4-.3-.8-.6-1.3-.8s-1-.3-1.6-.3h-.2c-.8 0-1.5.1-2.1.4s-1.1.6-1.6 1c-.4.4-.8 1-1.1 1.6s-.5 1.2-.6 1.9l-.8 4.6c-.1.3-.1.6-.1.9v.9c.1.5.2 1 .4 1.4s.5.8.9 1.1.8.6 1.3.8 1 .3 1.7.3zm-15-14.9-.5 2.7h3.6l-2.1 11.9h2.8l2.1-11.9h3.6l.5-2.7zm-2.7 0h-2.8l-1.7 9.6c-.1.7-.4 1.3-.8 1.8s-.9.7-1.6.7h-.1c-.5 0-.9-.1-1.2-.4-.2-.3-.4-.6-.4-1 0-.2 0-.3 0-.6 0-.2.1-.4.1-.6l1.7-9.5h-2.8l-1.7 9.3c-.1.3-.1.6-.1.9v.9c.1.5.2 1 .4 1.4s.5.8.9 1.1.8.6 1.3.8 1 .3 1.7.3h.1c.8 0 1.5-.1 2.1-.4s1.1-.6 1.6-1c.4-.4.8-1 1.1-1.6s.5-1.2.6-1.9zm-17.3 10.9.3 3.7h2.8l-1.4-14.6h-3.3l-6.6 14.6h2.9l1.6-3.7zm-.2-2.7h-2.3l1.9-4.6h.1zm-19.8 4c-.5 0-.9-.1-1.2-.4-.2-.3-.4-.6-.4-1 0-.2 0-.3 0-.6 0-.2.1-.4.1-.6l.8-4.5c.1-.7.4-1.3.8-1.8s.9-.7 1.6-.7h.2c.5 0 .9.1 1.2.4.2.3.4.6.4 1v.6c0 .2-.1.4-.1.6l-.8 4.5c-.1.7-.4 1.3-.8 1.8s-.9.7-1.6.7zm0 2.7c.8 0 1.5-.1 2.1-.4s1.1-.6 1.6-1c.4-.4.8-1 1.1-1.6s.5-1.2.6-1.9l.8-4.6c.1-.3.1-.6.1-.9s0-.6 0-.9c-.1-.5-.2-1-.4-1.4s-.5-.8-.9-1.2c-.4-.3-.8-.6-1.3-.8s-1-.3-1.6-.3h-.2c-.8 0-1.5.1-2.1.4s-1.1.6-1.6 1c-.4.4-.8 1-1.1 1.6s-.5 1.2-.6 1.9l-.8 4.6c-.1.3-.1.6-.1.9v.9c.1.5.2 1 .4 1.4s.5.8.9 1.1.8.6 1.3.8 1 .3 1.7.3zm-13.4-8.7.6-3.4h1.3.6c.2 0 .3 0 .5.1.3.1.6.2.7.5.2.2.2.5.2.9-.1.6-.3 1-.7 1.4s-.9.5-1.6.5zm6.6-3.7c-.1-.4-.3-.8-.6-1.1s-.6-.6-1-.8-.8-.4-1.3-.5c-.2-.1-.5-.1-.9-.1-.3 0-.7 0-1 0h-3.5l-2.6 14.6h2.8l1-6h1.3c.7 0 1.3.1 1.5.4.3.3.4.8.3 1.5l-.2 2.3v1c0 .3.1.6.3.8h3v-.1c-.2-.2-.4-.5-.4-.8-.1-.3-.1-.7 0-1.1l.3-2.5c.1-.7 0-1.3-.3-1.7-.2-.4-.6-.8-1.2-1 .9-.4 1.5-.9 1.9-1.5s.7-1.2.8-1.9c-.1-.5-.1-1-.2-1.5m-21.1-2.5-.5 2.7h3.6l-2.1 11.9h2.8l2.1-11.9h3.6l.5-2.7zm-10.9 5.2 2.7 9.5h2.9l2.6-14.6h-2.6l-1.5 8.4c0 .1 0 .3-.1.4 0 .1 0 .2-.1.3 0 .1 0 .3-.1.4l-2.7-9.5h-2.9l-2.6 14.6h2.6l1.5-8.4c0-.1 0-.2.1-.4 0-.1 0-.3.1-.4 0-.2 0-.3.1-.3zm-16 9.5h8.6l.4-2.6h-5.8l.6-3.6h4.8l.5-2.6h-4.8l.6-3.2h5.8l.5-2.6h-8.6zm-5.2-5.4v.2c-.1.7-.4 1.3-.8 1.8s-1 .7-1.6.7h-.1c-.5 0-.9-.1-1.2-.4-.2-.3-.4-.6-.4-1 0-.2 0-.3 0-.6 0-.2.1-.4.1-.6l.8-4.5c.1-.7.4-1.3.8-1.8s.9-.7 1.6-.7h.2c.5 0 .9.1 1.2.4.2.3.4.6.4 1v.6c0 .2-.1.5-.1.6h2.8c0-.3.1-.6.1-.9s0-.6 0-.8c0-.5-.2-1-.4-1.5-.2-.4-.5-.8-.9-1.2-.4-.3-.8-.6-1.3-.7-.5-.2-1-.3-1.6-.3h-.2c-.8 0-1.5.1-2.1.4s-1.1.6-1.6 1c-.4.4-.8 1-1.1 1.6s-.5 1.2-.6 1.9l-.8 4.6c-.1.3-.1.6-.1.9v.9c.1.5.2 1 .4 1.4s.5.8.9 1.1.8.6 1.3.8 1 .3 1.7.3h.1c.8 0 1.5-.2 2.2-.5.6-.3 1.2-.7 1.7-1.2s.8-1.1 1.1-1.7c.3-.7.4-1.3.5-2h-3z" fill="#0a74ba"/></svg>