<svg enable-background="new 0 0 540 240" viewBox="0 0 540 240" xmlns="http://www.w3.org/2000/svg"><path d="m164.8 126.9h-34v-13.7h33.9c11.2 0 20.3-9.1 20.3-20.4 0-11.2-9.1-20.4-20.3-20.4h-54.3-.1c-11.2 0-20.3 9.1-20.3 20.3v.1.1 54.3.1c0 11.3 9.1 20.4 20.4 20.4h.1 54.3c11.2 0 20.3-9.1 20.3-20.4s-9.1-20.4-20.3-20.4z" fill="#ef5025"/><path d="m90 92.7c0-11.3 9.1-20.4 20.4-20.4h.1c11.2 0 20.3 9.1 20.3 20.3v20.4h-20.3-.1c-11.3.1-20.4-9-20.4-20.3z" fill="#cb4528"/><path d="m110.5 127h20.3v20.1.1c0 11.3-9.1 20.4-20.4 20.4-11.2 0-20.3-9.1-20.4-20.3 0-11.2 9.2-20.3 20.5-20.3z" fill="#cb4528"/><path clip-rule="evenodd" d="m234.8 101.4c0-1.3-.4-1.8-1.7-1.8h-6.5c-1.3 0-1.7.5-1.7 1.8v37.1c0 1.3.5 1.8 1.7 1.8h6.5c1.3 0 1.7-.5 1.7-1.8z" fill-rule="evenodd"/><path clip-rule="evenodd" d="m272.9 101.4c0-1.3-.4-1.8-1.7-1.8h-5.9c-1.3 0-1.7.5-1.7 1.8v20.4c-.6-1.4-1.4-3.2-2.1-4.5l-10.1-16.9c-.2-.5-.7-.7-1.5-.7h-5.9c-1.3 0-1.7.5-1.7 1.8v37.1c0 1.3.5 1.8 1.7 1.8h5.9c1.3 0 1.7-.5 1.7-1.8v-20.4c.7 1.7 1.6 3.8 2.6 5.4l9.6 15.9c.4.6.7.8 1.6.8h5.9c1.3 0 1.7-.5 1.7-1.8v-37.1z" fill-rule="evenodd"/><path clip-rule="evenodd" d="m303 140.3c1.3 0 1.8-.5 1.8-1.7v-4.7c0-1.3-.5-1.7-1.8-1.7h-13v-9h11.4c1.3 0 1.8-.5 1.8-1.7v-4.4c0-1.3-.5-1.7-1.8-1.7h-11.4v-7.8h12.4c1.3 0 1.8-.5 1.8-1.7v-4.7c0-1.3-.5-1.7-1.8-1.7h-20.5c-1.3 0-1.7.5-1.7 1.8v37.1c0 1.3.5 1.8 1.7 1.8h21.1z" fill-rule="evenodd"/><path clip-rule="evenodd" d="m329.9 119.3 10.6-17.9c.6-1 .4-1.8-.8-1.8h-6.8c-1.3 0-2 .8-2.6 1.8l-5.1 9.6-5.5-9.6c-.6-1.1-1.3-1.8-2.6-1.8h-7.4c-1.3 0-1.3 1-.7 2l10.1 17.6-10.6 19c-.5 1-.5 2.1.7 2.1h7c1.3 0 2-.8 2.5-1.8l5.3-10.6 6.1 10.6c.5 1 1.3 1.8 2.5 1.8h7.4c1.3 0 1.4-.8.9-1.8z" fill-rule="evenodd"/><path d="m191.9 110.3c0-6 4.8-10.8 10.8-10.8h14.4c1.3 0 1.8.5 1.8 1.7v4.7c0 1.3-.5 1.7-1.8 1.7h-12c-1.8 0-3.3 1.6-3.3 3.8v17c0 2.4 1.5 3.9 3.8 3.9h11.5c1.3 0 1.8.4 1.8 1.7v4.7c0 1.3-.5 1.7-1.8 1.7h-14.4c-6 0-10.8-4.8-10.8-10.8z"/><g clip-rule="evenodd" fill-rule="evenodd"><path d="m360.3 130.9c0-1.8-1.1-3.1-4.4-3.1-3.4 0-4.5 1.3-4.5 3.1v6.6c0 1.8 1.1 3.1 4.5 3.1s4.5-1.3 4.5-3.1v-.6c0-.2-.1-.3-.3-.3h-.7c-.2 0-.3.1-.3.3v.5c0 1.2-.7 2.1-3.2 2.1s-3.2-.9-3.2-2.1v-3.1h7.4c.2 0 .3-.1.3-.3v-3.1zm-7.7 0c0-1.2.7-2.1 3.2-2.1s3.2.9 3.2 2.1v2.3h-6.4z"/><path d="m378.7 130.9c0-1.8-1.1-3.1-4.4-3.1-3.4 0-4.5 1.3-4.5 3.1v6.6c0 1.8 1.1 3.1 4.5 3.1s4.5-1.3 4.5-3.1v-.6c0-.2-.1-.3-.3-.3h-.7c-.2 0-.3.1-.3.3v.5c0 1.2-.7 2.1-3.2 2.1s-3.2-.9-3.2-2.1v-3.1h7.4c.2 0 .3-.1.3-.3v-3.1zm-7.6 0c0-1.2.7-2.1 3.2-2.1s3.2.9 3.2 2.1v2.3h-6.4z"/><path d="m382.8 127.9c-.2 0-.3.1-.3.3v11.8c0 .2.1.3.3.3h.7c.2 0 .3-.1.3-.3v-9.6c.5-.5 1.8-1.5 3.9-1.5 1.7 0 2.5.9 2.5 2.1v9.1c0 .2.1.3.3.3h.7c.2 0 .3-.1.3-.3v-9.1c0-.2 0-.4-.1-.6.5-.4 1.8-1.5 3.9-1.5 1.8 0 2.5.9 2.5 2.1v9.1c0 .2.1.3.3.3h.7c.2 0 .3-.1.3-.3v-9.3c0-1.8-1.1-3-3.5-3s-3.8 1.2-4.4 1.7c-.5-1.1-1.5-1.7-3.2-1.7-2.1 0-3.6 1-4.2 1.5v-1c0-.2-.1-.3-.3-.3h-.7z"/><path d="m403.1 137.5c0 1.8 1.2 3.1 4.6 3.1s4.6-1.3 4.6-3.1v-6.6c0-1.8-1.2-3.1-4.6-3.1s-4.6 1.3-4.6 3.1zm7.8-.1c0 1.3-.8 2.1-3.3 2.1s-3.3-.8-3.3-2.1v-6.4c0-1.2.8-2.1 3.3-2.1s3.3.9 3.3 2.1z"/><path d="m419.9 141.7.3-1.2h.2c3.4 0 4.4-1.3 4.4-3.1v-.7c0-.2-.1-.3-.3-.3h-.7c-.2 0-.3.1-.3.3v.6c0 1.3-.7 2.1-3.2 2.1s-3.1-.8-3.1-2.1v-6.4c0-1.2.7-2.1 3.1-2.1 2.5 0 3.2.9 3.2 2.1v.4c0 .2.1.3.3.3h.7c.2 0 .3-.1.3-.3v-.5c0-1.8-1-3.1-4.4-3.1s-4.4 1.3-4.4 3.1v6.6c0 1.6.8 2.8 3.4 3.1l-.5 1.7c-.1.2 0 .4.4.4h1.5c.5 0 1.2.2 1.2 1.1s-.7 1.1-1.2 1.1h-2.8c-.2 0-.3.1-.3.3v.3c0 .2.1.3.3.3h3c1 0 2.1-.5 2.1-2s-1.1-2-2.1-2z"/><path d="m428.2 131.3c0 .2.1.3.3.3h.7c.2 0 .3-.1.3-.3v-.4c0-1.2.7-2.1 3.1-2.1 2.5 0 3.1.9 3.1 2.1v2.5h-4.6c-2.1 0-3.2 1.3-3.2 2.9v1.3c0 1.6 1.1 2.9 3.5 2.9 2.1 0 3.6-.9 4.3-1.5l.1 1c0 .2.1.3.3.3h.6c.2 0 .3-.1.3-.3v-9.2c0-1.8-1-3.1-4.4-3.1s-4.4 1.3-4.4 3.1zm3.5 8.2c-1.7 0-2.4-.8-2.4-2v-1c0-1.2.6-2 2.1-2h4.3v3.5c-.6.4-2 1.5-4 1.5zm-.8-15.6c.3 0 .6.2.9.5l1.2.9c.4.4.9.5 1.3.5.9 0 1.6-.5 1.7-2.1v-.5c0-.2-.1-.3-.3-.3h-.4c-.2 0-.3.1-.3.3v.2c0 1.1-.2 1.4-.8 1.4-.3 0-.6-.2-.9-.4l-1.2-.9c-.4-.3-.9-.5-1.3-.5-.9 0-1.6.5-1.7 2.1v.5c0 .2.1.3.3.3h.4c.2 0 .3-.1.3-.3v-.2c0-1.2.2-1.5.8-1.5z"/><path d="m440.9 137.5c0 1.8 1.2 3.1 4.6 3.1s4.6-1.3 4.6-3.1v-6.6c0-1.8-1.2-3.1-4.6-3.1s-4.6 1.3-4.6 3.1zm7.8-.1c0 1.3-.8 2.1-3.3 2.1s-3.3-.8-3.3-2.1v-6.4c0-1.2.8-2.1 3.3-2.1s3.3.9 3.3 2.1z"/><path d="m353 105.2c0-.2-.1-.3-.3-.3h-.7c-.2 0-.3.1-.3.3v11.8c0 .2.1.3.3.3h.7c.2 0 .3-.1.3-.3zm0-5.2c0-.2-.1-.3-.3-.3h-.7c-.2 0-.3.1-.3.3v2.4c0 .2.1.3.3.3h.7c.2 0 .3-.1.3-.3z"/><path d="m358.3 104.9h-.6c-.2 0-.3.1-.3.3v11.8c0 .2.1.3.3.3h.7c.2 0 .3-.1.3-.3v-9.6c.6-.5 2-1.5 4-1.5 1.7 0 2.5.9 2.5 2.1v9.1c0 .2.1.3.3.3h.7c.2 0 .3-.1.3-.3v-9.3c0-1.8-1.1-3-3.5-3-2.2 0-3.7 1-4.4 1.6v-1.1c0-.3-.1-.4-.3-.4z"/><path d="m370.4 114.4c0 1.8 1.2 3.1 4.6 3.1s4.6-1.3 4.6-3.1v-6.6c0-1.8-1.2-3.1-4.6-3.1s-4.6 1.3-4.6 3.1zm7.8-.1c0 1.3-.8 2.1-3.3 2.1s-3.3-.8-3.3-2.1v-6.4c0-1.2.8-2.1 3.3-2.1s3.3.9 3.3 2.1z"/><path d="m387 117.4c.2 0 .3-.1.3-.3l4.1-11.9c.1-.2 0-.3-.2-.3h-.7c-.2 0-.3.1-.4.3l-3.1 9.1c-.2.4-.3 1.2-.4 1.3-.1-.2-.2-1-.3-1.3l-3.1-9.1c-.1-.2-.2-.3-.4-.3h-.8c-.2 0-.3.1-.2.3l4 11.9c.1.2.1.3.3.3z"/><path d="m393.8 108.3c0 .2.1.3.3.3h.7c.2 0 .3-.1.3-.3v-.4c0-1.2.7-2.1 3.1-2.1 2.5 0 3.1.9 3.1 2.1v2.5h-4.6c-2.1 0-3.2 1.3-3.2 2.9v1.3c0 1.6 1.1 2.9 3.5 2.9 2.1 0 3.6-.9 4.3-1.5l.1 1c0 .2.1.3.3.3h.6c.2 0 .3-.1.3-.3v-9.2c0-1.8-1-3.1-4.4-3.1s-4.4 1.3-4.4 3.1zm3.5 8.1c-1.7 0-2.4-.8-2.4-2v-1c0-1.2.6-2 2.1-2h4.3v3.5c-.6.5-2 1.5-4 1.5z"/><path d="m410.5 118.7.3-1.2h.2c3.4 0 4.4-1.3 4.4-3.1v-.7c0-.2-.1-.3-.3-.3h-.7c-.2 0-.3.1-.3.3v.6c0 1.3-.7 2.1-3.2 2.1s-3.1-.8-3.1-2.1v-6.4c0-1.2.7-2.1 3.1-2.1 2.5 0 3.2.9 3.2 2.1v.4c0 .2.1.3.3.3h.7c.2 0 .3-.1.3-.3v-.5c0-1.8-1-3.1-4.4-3.1s-4.4 1.3-4.4 3.1v6.6c0 1.6.8 2.8 3.4 3.1l-.5 1.7c-.1.2 0 .4.4.4h1.5c.5 0 1.2.2 1.2 1.1s-.7 1.1-1.2 1.1h-2.8c-.2 0-.3.1-.3.3v.3c0 .2.1.3.3.3h3c1 0 2.1-.5 2.1-2s-1.1-2-2.1-2z"/><path d="m418.7 108.3c0 .2.1.3.3.3h.7c.2 0 .3-.1.3-.3v-.4c0-1.2.7-2.1 3.1-2.1 2.5 0 3.1.9 3.1 2.1v2.5h-4.6c-2.1 0-3.2 1.3-3.2 2.9v1.3c0 1.6 1.1 2.9 3.5 2.9 2.1 0 3.6-.9 4.3-1.5l.1 1c0 .2.1.3.3.3h.6c.2 0 .3-.1.3-.3v-9.2c0-1.8-1-3.1-4.4-3.1s-4.4 1.3-4.4 3.1zm3.5 8.1c-1.7 0-2.4-.8-2.4-2v-1c0-1.2.6-2 2.1-2h4.3v3.5c-.6.5-2 1.5-4 1.5zm-.7-15.5c.3 0 .6.2.9.5l1.2.9c.4.4.9.5 1.3.5.9 0 1.6-.5 1.7-2.1v-.5c0-.2-.1-.3-.3-.3h-.4c-.2 0-.3.1-.3.3v.2c0 1.1-.2 1.4-.8 1.4-.3 0-.6-.2-.9-.4l-1.2-.9c-.4-.3-.9-.5-1.3-.5-.9 0-1.6.5-1.7 2.1v.5c0 .2.1.3.3.3h.4c.2 0 .3-.1.3-.3v-.2c0-1.2.1-1.5.8-1.5z"/><path d="m431.4 114.4c0 1.8 1.2 3.1 4.6 3.1s4.6-1.3 4.6-3.1v-6.6c0-1.8-1.2-3.1-4.6-3.1s-4.6 1.3-4.6 3.1zm7.8-.1c0 1.3-.8 2.1-3.3 2.1s-3.3-.8-3.3-2.1v-6.4c0-1.2.8-2.1 3.3-2.1s3.3.9 3.3 2.1z"/></g></svg>