<?xml version="1.0" encoding="UTF-8" standalone="no"?>
<svg
   version="1.1"
   width="642.94629"
   height="160.711"
   id="svg64"
   viewBox="0 0 642.94629 160.711"
   sodipodi:docname="feevale_official_logo_horizontal_with_inkscape.svg"
   inkscape:version="1.1.2 (0a00cf5339, 2022-02-04)"
   xmlns:inkscape="http://www.inkscape.org/namespaces/inkscape"
   xmlns:sodipodi="http://sodipodi.sourceforge.net/DTD/sodipodi-0.dtd"
   xmlns:xlink="http://www.w3.org/1999/xlink"
   xmlns="http://www.w3.org/2000/svg"
   xmlns:svg="http://www.w3.org/2000/svg"
   xmlns:rdf="http://www.w3.org/1999/02/22-rdf-syntax-ns#"
   xmlns:cc="http://creativecommons.org/ns#"
   xmlns:dc="http://purl.org/dc/elements/1.1/">
  <title
     id="title42">Feevale symbol and logo (horizontal)</title>
  <defs
     id="defs68" />
  <sodipodi:namedview
     id="namedview66"
     pagecolor="#ffffff"
     bordercolor="#666666"
     borderopacity="1.0"
     inkscape:pageshadow="2"
     inkscape:pageopacity="0.0"
     inkscape:pagecheckerboard="true"
     showgrid="false"
     fit-margin-top="0"
     fit-margin-left="0"
     fit-margin-right="0"
     fit-margin-bottom="0"
     inkscape:showpageshadow="false"
     inkscape:zoom="1.2078439"
     inkscape:cx="308.81474"
     inkscape:cy="91.899293"
     inkscape:window-width="1920"
     inkscape:window-height="1131"
     inkscape:window-x="0"
     inkscape:window-y="0"
     inkscape:window-maximized="1"
     inkscape:current-layer="svg64" />
  <g
     id="Layer1000"
     transform="translate(-99.471385,-205.7378)">
    <defs
       id="defs16">
      <linearGradient
         id="grad1">
        <stop
           offset="0.0000%"
           stop-color="#00842c"
           stop-opacity="1.0000"
           id="stop2" />
        <stop
           offset="13.0000%"
           stop-color="#00842c"
           stop-opacity="1.0000"
           id="stop4" />
        <stop
           offset="48.0000%"
           stop-color="#52a222"
           stop-opacity="1.0000"
           id="stop6" />
        <stop
           offset="74.0000%"
           stop-color="#a3c400"
           stop-opacity="1.0000"
           id="stop8" />
        <stop
           offset="99.0000%"
           stop-color="#eadf00"
           stop-opacity="1.0000"
           id="stop10" />
        <stop
           offset="100.0000%"
           stop-color="#eadf00"
           stop-opacity="1.0000"
           id="stop12" />
      </linearGradient>
      <linearGradient
         xlink:href="#grad1"
         id="grad2"
         x1="192.03879"
         y1="235.99942"
         x2="192.03879"
         y2="326.19797"
         gradientTransform="scale(0.89015976,1.1233939)"
         gradientUnits="userSpaceOnUse" />
    </defs>
    <path
       d="m 186.3588,265.1206 c -9.7037,16.9864 -15.4136,37.6796 -15.4136,60.0393 0,14.665 2.6552,28.6117 7.3755,41.2731 v 0 c 0.009,0.009 0.0126,0.0158 0.0126,0.0158 0.0102,-0.007 0.0102,-0.007 0.0102,-0.0158 v 0 c 0,-0.005 0,-0.005 -0.0102,-0.005 v 0 c 9.294,-66.2046 62.607,-93.7288 72.7929,-98.0505 v 0 c 0.0277,-0.009 0.0741,-0.0315 0.1025,-0.0473 v 0 c 0.1387,-0.0527 -1.6137,0.2624 -5.4098,0.5775 v 0 c -4.9195,0.4083 -13.2736,0.8179 -25.3931,0.4233 v 0 c -9.773,-0.3152 -22.069,-1.4986 -34.0527,-4.2107 v 0 z"
       style="fill:url(#grad2)"
       id="path18" />
    <defs
       id="defs28">
      <linearGradient
         id="grad3">
        <stop
           offset="0.0000%"
           stop-color="#00842c"
           stop-opacity="1.0000"
           id="stop20" />
        <stop
           offset="35.0000%"
           stop-color="#007126"
           stop-opacity="1.0000"
           id="stop22" />
        <stop
           offset="100.0000%"
           stop-color="#005d1f"
           stop-opacity="1.0000"
           id="stop24" />
      </linearGradient>
      <linearGradient
         xlink:href="#grad3"
         id="grad4"
         x1="127.82266"
         y1="173.49583"
         x2="127.82266"
         y2="285.14783"
         gradientTransform="scale(0.77819838,1.2850194)"
         gradientUnits="userSpaceOnUse" />
    </defs>
    <path
       d="m 99.6942,237.9091 c 1.0394,12.6647 6.0621,41.6869 21.275,67.4628 v 0 c 11.9679,20.2521 29.1984,42.187 57.3515,61.0486 -4.7203,-12.6639 -7.3755,-26.6106 -7.3755,-41.2715 v 0 c 0,-22.366 5.7099,-43.0619 15.4136,-60.0433 v 0 c -4.6808,-1.066 -9.4933,-2.2573 -14.3829,-3.5849 v 0 C 130.1268,250.1222 98.2965,233.2156 100.8667,223.7537 v 0 c 0.082,-0.2852 0.1946,-0.5538 0.3207,-0.8082 -1.2985,1.619 -2.14,7.0863 -1.4932,14.9636 z"
       style="fill:url(#grad4)"
       id="path30" />
    <defs
       id="defs39">
      <linearGradient
         id="grad5"
         gradientTransform="scale(0.86200517,1.1600858)"
         x1="206.88217"
         y1="231.2915"
         x2="291.44687"
         y2="231.2915"
         gradientUnits="userSpaceOnUse">
        <stop
           offset="0.0000%"
           stop-color="#73b61c"
           stop-opacity="1.0000"
           id="stop32" />
        <stop
           offset="45.0000%"
           stop-color="#b6cb00"
           stop-opacity="1.0000"
           id="stop34" />
        <stop
           offset="100.0000%"
           stop-color="#eadf00"
           stop-opacity="1.0000"
           id="stop36" />
      </linearGradient>
    </defs>
    <path
       d="m 178.3545,366.4203 h 4e-4 c 52.5429,-37.6986 70.8662,-87.9897 72.8738,-98.1023 v 0 c -9.9637,4.2073 -63.5627,31.702 -72.8952,98.0898 v 10e-4 c 0.01,2e-4 0.0203,0.0103 0.021,0.011 z"
       style="fill:url(#grad5)"
       id="path41" />
    <defs
       id="defs55">
      <linearGradient
         id="grad6">
        <stop
           offset="0.0000%"
           stop-color="#f8a600"
           stop-opacity="1.0000"
           id="stop43" />
        <stop
           offset="0.0000%"
           stop-color="#f8a600"
           stop-opacity="1.0000"
           id="stop45" />
        <stop
           offset="15.0000%"
           stop-color="#fcb900"
           stop-opacity="1.0000"
           id="stop47" />
        <stop
           offset="53.0000%"
           stop-color="#ffcb00"
           stop-opacity="1.0000"
           id="stop49" />
        <stop
           offset="100.0000%"
           stop-color="#ffdc00"
           stop-opacity="1.0000"
           id="stop51" />
      </linearGradient>
      <linearGradient
         xlink:href="#grad6"
         id="grad7"
         x1="63.196548"
         y1="327.89944"
         x2="63.196548"
         y2="422.51843"
         gradientTransform="scale(1.5937734,0.62744175)"
         gradientUnits="userSpaceOnUse" />
    </defs>
    <path
       d="m 105.7635,219.3454 c -1.1433,0.6209 -3.3376,1.8319 -4.5761,3.6001 v 0 c 0,0 -0.0134,0.009 -0.0134,0.0187 v 0 c 0,-0.005 0.005,-0.008 0.009,-0.0109 v 0 c -0.134,0.2593 -0.2356,0.5255 -0.3167,0.8004 v 0 c -2.5702,9.4619 29.2601,26.3685 71.1092,37.7671 v 0 c 4.8896,1.3276 9.7021,2.5189 14.3829,3.5849 14.5991,-25.5444 38.2216,-42.644 65.1638,-44.1853 v 0 c -7.4844,-3.7257 -34.8952,-15.1503 -73.1498,-15.1826 v 0 c -0.0867,0 -0.1765,0 -0.2631,0 v 0 c -21.0503,0 -51.0556,2.6378 -72.3462,13.6076 z"
       style="fill:url(#grad7)"
       id="path57" />
    <path
       d="m 721.5235,255.9925 v -11.2771 h 16.7451 v -4.4842 h -16.7451 v -10.4896 h 18.0051 v -4.4654 h -22.7851 v 35.1834 h 23.6684 v -4.4671 z m -41.6487,0 h -6.0422 v -26.2509 h 7.1713 c 11.4709,0 13.8237,8.6445 13.8237,13.1294 0,8.6955 -6.8911,13.1215 -14.9528,13.1215 z m 1.4938,-30.7163 h -12.3205 v 35.1834 h 11.5101 c 12.618,0 19.3396,-8.5998 19.3396,-17.5886 0,-6.5152 -3.6221,-17.5948 -18.5292,-17.5948 z m -90.3292,30.7163 h -6.0345 v -26.2509 h 7.1682 c 11.4763,0 13.8157,8.6445 13.8157,13.1294 0,8.6955 -6.8839,13.1215 -14.9494,13.1215 z m 1.4875,-30.7163 h -12.3051 v 35.1834 h 11.5048 c 12.6211,0 19.3483,-8.5998 19.3483,-17.5886 0,-6.5152 -3.6426,-17.5948 -18.548,-17.5948 z m -36.8835,35.1834 h 4.794 v -35.1843 h -4.794 z m -34.4169,-26.2362 c 0,-2.1911 1.5878,-5.3676 6.8597,-5.3676 2.7379,0 5.0898,1.242 6.2775,3.0809 l 3.8881,-3.5352 c -2.6376,-3.214 -6.3324,-4.0204 -10.1656,-4.0204 -8.486,0 -11.9511,5.7167 -11.9511,9.8423 0,13.7123 17.3743,8.6963 17.3743,16.7994 0,3.8707 -3.8745,5.865 -7.011,5.865 -2.8564,0 -5.7874,-1.1942 -7.4686,-3.7807 l -3.9452,3.3868 c 2.3966,3.3262 6.7161,4.8686 11.2608,4.8686 6.7757,0 12.2531,-4.0787 12.2531,-10.8866 0,-12.672 -17.372,-7.3609 -17.372,-16.2525 z m -38.8934,6.5599 v -11.3282 h 6.2847 c 3.8002,0 7.58,0.8858 7.58,5.6633 0,4.773 -3.7798,5.6649 -7.58,5.6649 z m 18.9545,-5.6649 c 0,-4.4308 -2.3097,-9.8422 -11.318,-9.8422 H 477.558 v 35.1834 h 4.7751 v -15.5018 h 5.3464 l 8.9599,15.5018 h 5.9715 L 492.5977,244.411 c 5.34,-0.5955 8.6899,-4.8207 8.6899,-9.2926 z m -59.3547,9.597 h 16.7311 v -4.4842 h -16.7311 v -10.4896 h 17.9878 v -4.4654 h -22.7781 v 35.1834 h 23.6756 v -4.4671 h -18.8853 z m 193.9125,-19.4392 -13.9085,35.1834 h 5.2415 l 10.7491,-28.6297 h 0.113 l 10.3642,28.6297 h 5.533 L 640.325,225.2762 Z M 406.948,253.9066 h -0.0996 l -10.3782,-28.6304 h -5.5221 l 13.6063,35.1834 h 4.496 l 13.888,-35.1834 h -5.2301 z m -34.9873,6.553 h 4.7847 v -35.1843 h -4.7847 z m -23.8294,-6.2564 h -0.0854 l -19.4337,-28.927 h -6.2824 v 35.1834 h 4.7943 v -28.9152 h 0.0909 l 19.6314,28.9152 h 6.0838 v -35.1834 h -4.7989 z m -48.9787,-7.3649 c 0,4.3908 -2.1942,10.0495 -8.8705,10.0495 -6.6807,0 -8.8664,-5.6587 -8.8664,-10.0495 v -21.5621 h -4.7838 v 22.3144 c 0,8.1564 5.937,13.7719 13.6502,13.7719 7.7195,0 13.659,-5.6155 13.659,-13.7719 v -22.3144 h -4.7885 z"
       style="fill:#6e7071;fill-rule:evenodd"
       id="path59" />
    <path
       d="m 531.7856,276.6854 -20.0392,52.2163 h -0.2136 l -19.6966,-52.2163 h -20.0481 l 31.8602,79.6776 h 14.0624 l 32.8679,-79.6776 z m 108.4396,0 h -17.5479 v 79.6776 h 40.1242 c 8.7898,0 15.9273,-7.0982 16.033,-15.8634 v -0.3397 h -38.6093 z m 63.5904,63.4745 V 323.953 h 34.5641 v -16.2032 h -34.5641 v -14.8534 h 36.5889 v -16.211 h -54.137 v 79.6776 h 40.1314 c 8.7875,0 15.9226,-7.0982 16.0188,-15.8634 v -0.3397 z M 569.299,276.6854 536.4467,356.363 h 18.7954 l 20.0221,-52.2241 h 0.2322 l 19.6786,52.2241 h 20.0376 L 583.362,276.6854 Z M 276.6321,356.363 h 17.544 v -31.0588 h 33.2065 v -16.1969 h -33.2065 v -16.2109 h 35.9114 v -16.211 h -53.4554 z m 151.2041,-32.41 h 34.5524 v -16.2032 h -34.5524 v -14.8534 h 36.5874 v -16.211 h -54.1442 v 79.6776 h 40.1276 c 8.7882,0 15.9242,-7.0982 16.0202,-15.8634 v -0.3397 h -38.591 z m -67.1278,0 h 34.5498 v -16.2032 h -34.5498 v -14.8534 h 36.563 v -16.211 h -54.1261 v 79.6776 h 40.1276 c 8.8054,0 15.9454,-7.0982 16.0392,-15.8634 v -0.3397 h -38.6037 z"
       style="fill:#6e7071;fill-rule:evenodd"
       id="path61" />
  </g>
  <metadata
     id="metadata40">
    <rdf:RDF>
      <cc:Work
         rdf:about="">
        <dc:title>Feevale symbol and logo (horizontal)</dc:title>
        <cc:license
           rdf:resource="http://creativecommons.org/publicdomain/zero/1.0/" />
      </cc:Work>
      <cc:License
         rdf:about="http://creativecommons.org/publicdomain/zero/1.0/">
        <cc:permits
           rdf:resource="http://creativecommons.org/ns#Reproduction" />
        <cc:permits
           rdf:resource="http://creativecommons.org/ns#Distribution" />
        <cc:permits
           rdf:resource="http://creativecommons.org/ns#DerivativeWorks" />
      </cc:License>
    </rdf:RDF>
  </metadata>
</svg>
