<svg enable-background="new 0 0 540 240" viewBox="0 0 540 240" xmlns="http://www.w3.org/2000/svg"><g fill="#001e50"><path d="m129.1 159.1c21.6 0 39.1-17.5 39.1-39.1s-17.5-39.1-39.1-39.1-39.1 17.5-39.1 39.1 17.5 39.1 39.1 39.1m-11.3-21.5c-.2 0-.3-.2-.4-.4l-18-36.3c3.2-4.9 7.5-9.1 12.7-12l12.9 28.8c.2.5.5.7 1 .7h6.2c.4 0 .8-.1 1-.7l12.9-28.8c5.2 2.9 9.5 7 12.7 12l-18 36.3c-.1.2-.2.4-.4.4s-.3-.2-.4-.4l-6.8-15.5c-.2-.5-.5-.7-1-.7h-6.2c-.4 0-.8.1-1 .7l-6.8 15.5c-.1.2-.2.4-.4.4m11.3-25.6c-.2 0-.3-.2-.4-.4l-11.1-25c3.6-1.3 7.5-2 11.6-2 4 0 8 .7 11.6 2l-11.1 25c-.3.2-.4.4-.6.4m0 43.5c-19.4 0-35.4-16-35.4-35.5 0-4.4.8-8.5 2.2-12.4l20.7 41.6c.3.5.6 1 1.3 1s1-.4 1.3-1l9.5-21.3c.1-.2.2-.4.4-.4s.3.2.4.4l9.5 21.3c.2.5.6 1 1.3 1s1-.4 1.3-1l20.7-41.6c1.5 3.9 2.2 8 2.2 12.4 0 19.4-16 35.5-35.4 35.5"/><path d="m433.9 112.9v25.8h7.2v-18c.9-1.1 2.6-2.5 5.6-2.5.6 0 1.8.1 2.6.2l.6-6.1c-.6-.2-1.7-.3-2.6-.3-3.4 0-5.6 2.3-6.5 3.9h-.1l-1-3.1h-5.8zm-14.5 14.7v4.5c-1.5 1.1-4 1.8-5.9 1.8-2.2 0-3.4-1-3.4-3.1 0-1.9 1.8-3.2 6.6-3.2zm7.1-5.1c0-6.6-3.6-10.5-11.1-10.5-4 0-7.9 1.1-10.7 2.3l1.7 5.5c2.5-1.1 5.7-1.9 8.6-1.9 1.6 0 4.4.5 4.4 3.7v1.2h-3.5c-9.1 0-12.8 2.7-12.8 8.5 0 4.7 2.9 8.1 8.7 8.1 3.2 0 6.6-1.8 8.3-3.2h.1c.9 2 2.4 3.1 5.1 3.1 1.6 0 2.6-.2 3.8-.4v-4.9h-1.9c-.8 0-.9-.2-.9-1v-10.5zm-48.4 3.3c0 8.4 4.9 13.7 13.7 13.7 3.2 0 6.3-.9 8-1.6l-1.4-5.5c-1.5.5-3.4 1.1-5.7 1.1-4 0-7.2-2.1-7.2-7.8s3.3-7.8 7.2-7.8c2.3 0 4.2.6 5.7 1.1l1.4-5.5c-1.7-.6-4.9-1.6-8-1.6-8.8.2-13.7 5.6-13.7 13.9m-13.2 1.8v4.5c-1.5 1.1-4 1.8-5.9 1.8-2.2 0-3.4-1-3.4-3.1 0-1.9 1.8-3.2 6.6-3.2zm7-5.1c0-6.6-3.6-10.5-11.1-10.5-4 0-7.9 1.1-10.7 2.3l1.7 5.5c2.5-1.1 5.7-1.9 8.6-1.9 1.6 0 4.4.5 4.4 3.7v1.2h-3.5c-9.1 0-12.8 2.7-12.8 8.5 0 4.7 2.9 8.1 8.7 8.1 3.2 0 6.6-1.8 8.3-3.2h.1c.9 2 2.4 3.1 5.1 3.1 1.6 0 2.6-.2 3.8-.4v-4.9h-1.9c-.8 0-.9-.2-.9-1v-10.5zm-53-21.3v37.5h5.4l1-2.3h.1c1.9 1.3 4.4 3.1 8.2 3.1 7.5 0 11.3-6.2 11.3-13.7s-3.9-13.7-11.3-13.7c-3.6 0-5.8 1.6-7.3 2.7h-.1v-13.6zm7.2 18.4c1.4-.9 3.3-1.6 5.2-1.6 4.3 0 6.2 3.2 6.2 7.8s-1.9 7.8-6.2 7.8c-1.9 0-3.8-.7-5.2-1.6zm-21.8-15.2c0 2.3 1.7 4 4.2 4 2.6 0 4.2-1.7 4.2-4s-1.7-4-4.2-4c-2.5.1-4.2 1.7-4.2 4m7.8 8.5h-7.2v25.8h7.2zm-21.8 14.7v4.5c-1.5 1.1-4 1.8-5.9 1.8-2.2 0-3.4-1-3.4-3.1 0-1.9 1.8-3.2 6.6-3.2zm7.1-5.1c0-6.6-3.6-10.5-11.1-10.5-4 0-7.9 1.1-10.7 2.3l1.7 5.5c2.5-1.1 5.7-1.9 8.6-1.9 1.6 0 4.4.5 4.4 3.7v1.2h-3.5c-9.1 0-12.8 2.7-12.8 8.5 0 4.7 2.9 8.1 8.7 8.1 3.2 0 6.6-1.8 8.3-3.2h.1c.9 2 2.4 3.1 5.1 3.1 1.6 0 2.6-.2 3.8-.4v-4.9h-1.9c-.8 0-.9-.2-.9-1v-10.5zm-52.7-9.6v16.3c0 6.2 3.2 10.3 9.4 10.3 4 0 6.6-2 8-3.3h.1l1 2.5h5.8v-25.8h-7.2v18.5c-1.1.9-3.1 2.2-5.5 2.2-3.2 0-4.4-1.8-4.4-5.1v-15.5h-7.2zm-20.2 6.3v5.3l6.5.9v6.8c-1.7.7-3.8 1-6.1 1-7 0-9.9-5-9.9-12.7 0-7.6 3.1-12.7 10.6-12.7 3.9 0 7.5.9 10.2 2l2.1-5.8c-2.8-1.3-7.5-2.6-12.4-2.6-12.7 0-18.4 8.8-18.4 19 0 11.2 5.7 19 17.3 19 5.1 0 10.5-1.4 13.9-3.2v-17.2h-13.8z"/></g></svg>