<svg enable-background="new 0 0 540 240" viewBox="0 0 540 240" xmlns="http://www.w3.org/2000/svg"><g fill="#231f20"><path d="m90 89.6h6.7v12.2h.1c1.3-2.2 3.8-3.8 6.4-3.8 5.9 0 10 2.5 10 8.9v17.1h-6.7v-15.2c0-2.3-.3-5-4.8-5-4.1 0-4.9 2.2-4.9 4.3v15.9h-6.8z"/><path d="m132.9 111.9c-1.9 1.1-4.5 1-6.2 1.4-2.1.4-3.5 2.1-2.9 4.1.4 1.5 1.6 2.6 4.5 2.1 4-.6 4.7-3.4 4.7-6.2v-1.4zm.7 12.1c-.5-.6-.8-1.7-.7-2.5-2.3 2.2-4.4 3.6-8.3 3.6-5.3 0-7.9-2.9-7.7-7.9.2-3.6 1.6-7.1 7.5-8.1 2.5-.1 5.2-.7 6.8-1.2 1.2-.4 1.8-1.7 1.7-2.9 0-1.6-1.3-2.3-4.4-2.3-3.8 0-4.3 2.3-4.4 4.2h-6.3c.1-8.2 7.2-8.9 10.7-8.9 2.6 0 4.8.4 6.1.9 2.6 1 4.7 3.1 4.7 7.2v14c0 1.1.6 2.3 1.5 3v.9z"/><path d="m145.3 98.4h6.7v5h.1c.4-1.5.8-2.4 3.1-4 1.2-.8 2.7-1.7 4.8-1.4v6.7c-2.9-.3-7.2-.7-8 4.9v14.4h-6.7z"/><path d="m164.7 124v-25.6h6.7v3.8h.1c2.1-3 4-4.8 8-4.2 3.3.4 4.2 1.6 6.1 3.7 1.6-2.3 3.6-4.3 9.1-3.7 5.2.7 6.6 4.1 6.6 8.3v17.7h-6.7v-17.6c-.1-1.9-1.8-2.6-3.4-2.7-3.6-.2-4.9 2.9-4.9 4.6v15.7h-6.7v-17.6c-.4-1.8-1.6-2.6-3.7-2.7-2.4 0-4.6 1.5-4.6 4.6v15.7z"/><path d="m221.3 111.9c-1.9 1.1-4.5 1-6.2 1.4-2.1.4-3.5 2.1-2.9 4.1.4 1.5 1.6 2.6 4.5 2.1 4-.6 4.7-3.4 4.7-6.2v-1.4zm.8 12.1c-.5-.6-.8-1.7-.7-2.5-2.4 2.2-4.4 3.6-8.3 3.6-5.3 0-7.9-2.9-7.7-7.9.1-3.6 1.6-7.1 7.5-8.1 2.5-.1 5.2-.7 6.8-1.2 1.2-.4 1.8-1.7 1.7-2.9 0-1.6-1.4-2.3-4.4-2.3-3.8 0-4.3 2.3-4.4 4.2h-6.3c.1-8.2 7.2-8.9 10.7-8.9 2.6 0 4.8.4 6.1.9 2.6 1 4.7 3.1 4.7 7.2v14c0 1.1.6 2.3 1.5 3v.9z"/><path d="m233.8 98.4h6.7v3.9h.1c1.3-2.7 3.8-4.3 6.4-4.3 5.9 0 10 2.5 10 8.9v17.1h-6.7v-15.2c0-2.3-.3-5-4.8-5-4.1 0-4.9 2.2-4.9 4.3v15.9h-6.7v-25.6z"/><path d="m296.3 89.6v18.7h.1l8.4-9.9h7.7l-8.8 9.8 9.4 15.8h-7.9l-6.1-11-2.8 3v8h-6.7v-34.4z"/><path d="m262.3 124 20.6-34.5h1.3l-20.6 34.5z"/><path d="m296.3 89.6v18.7h.1l8.4-9.9h7.7l-8.8 9.8 9.4 15.8h-7.9l-6.1-11-2.8 3v8h-6.7v-34.4z"/><path d="m331 111.9c-1.9 1.1-4.5 1-6.2 1.4-2.1.4-3.5 2.1-2.9 4.1.4 1.5 1.6 2.6 4.5 2.1 4-.6 4.7-3.4 4.7-6.2v-1.4zm.7 12.1c-.5-.6-.8-1.7-.7-2.5-2.4 2.2-4.4 3.6-8.3 3.6-5.3 0-7.9-2.9-7.7-7.9.1-3.6 1.6-7.1 7.5-8.1 2.5-.1 5.2-.7 6.8-1.2 1.2-.4 1.8-1.7 1.7-2.9 0-1.6-1.3-2.3-4.4-2.3-3.8 0-4.3 2.3-4.4 4.2h-6.3c.1-8.2 7.2-8.9 10.7-8.9 2.6 0 4.8.4 6.1.9 2.6 1 4.6 3.1 4.6 7.2v14c0 1.1.6 2.3 1.5 3v.9z"/><path d="m343.4 98.4h6.7v5h.1c.4-1.5.8-2.4 3.1-4 1.1-.8 2.7-1.7 4.8-1.4v6.7c-2.9-.3-7.2-.7-8 4.9v14.4h-6.7z"/><path d="m368.4 106.6c-.5 1-1.2 2.9-1.2 5s.7 4 1.2 5c1.1 2.1 2.9 2.9 4.5 2.9 1.5 0 3.3-.8 4.5-2.9.5-1 1.2-2.9 1.2-5s-.7-4-1.2-5c-1.2-2.1-2.9-2.9-4.5-2.9s-3.3.7-4.5 2.9m16.8 17.5h-6.7v-2.7h-.1c-1.8 2.6-4.5 3.5-6.6 3.6-4.7.2-7.4-1.7-9.4-5.9-1-2.3-1.8-4.6-2-7.1-.1-2.5.3-5.2 1.7-8.3 2.2-5 6.5-5.7 8.9-5.8 4.4-.2 6.4 1.7 7.3 3.9h.1v-12.2h6.7v34.5z"/><path d="m397.7 106.5c-.5 1-1.3 2.9-1.3 5s.7 4 1.3 5c1.2 2.1 3.1 2.9 4.8 2.9s3.5-.8 4.8-2.9c.5-1 1.3-2.9 1.3-5s-.7-4-1.3-5c-1.2-2.1-3.1-2.9-4.8-2.9s-3.6.8-4.8 2.9m-4.2 15.4c-2.6-2.3-3.8-6.3-3.8-10.4s1.2-8.1 3.8-10.4c2.3-2.1 5.6-3.1 9-3.1s6.7 1 9 3.1c2.6 2.3 3.8 6.3 3.8 10.4 0 4.2-1.3 8.1-3.8 10.4-2.3 2.1-5.6 3.1-9 3.1-3.4.1-6.7-1-9-3.1"/><path d="m419.7 98.4h6.7v3.9h.1c1.3-2.7 3.8-4.3 6.4-4.3 5.9 0 10 2.5 10 8.9v17.1h-6.7v-15.2c0-2.3-.3-5-4.8-5-4.1 0-4.9 2.2-4.9 4.3v15.9h-6.7v-25.6z"/><path d="m262.3 124 20.6-34.5h1.3l-20.6 34.5z"/><path d="m446.9 98.8c.5 0 .9 0 .9-.6 0-.4-.4-.5-.8-.5h-.7v1.1zm-.6 1.9h-.5v-3.5h1.3c.8 0 1.2.3 1.2 1 0 .6-.4.9-.9 1l1 1.5h-.6l-.9-1.5h-.6zm.6.8c1.4 0 2.5-1.1 2.5-2.5s-1.1-2.5-2.5-2.5-2.5 1.1-2.5 2.5c.1 1.4 1.1 2.5 2.5 2.5m-3-2.5c0-1.7 1.4-3 3.1-3s3.1 1.3 3.1 3c0 1.8-1.4 3-3.1 3s-3.1-1.3-3.1-3"/><path d="m320.4 129.9v8.1h-9.7v-8.1h-3.9v18.3h3.9v-8.6h9.7v6.6c0 .4.1.8.2 1 .2.3.4.5.6.6s.5.2.8.3c.3 0 .5.1.8.1h1.5v-18.3z"/><path d="m397.2 148.2v-18.3h-3.8l-7.7 13.6-7.8-13.6h-3.9v18.3h2v-14.2l8.2 14.2h1l8-14.1v12.1c0 .4.1.8.3 1 .2.3.4.5.6.6s.5.2.8.3c.3 0 .5.1.8.1z"/><path d="m421.8 148.2-9.8-18.7h-1.2l-10.1 18.7h2.3l3.1-5.8h7.1l-1-1.9h-5.1l3.3-6.2 6.5 12.4c.3.5.6.9.9 1.1.4.2.9.3 1.5.3h2.5z"/><path d="m442.2 129.9c-.1 0-.2 0-.4 0-.1 0-.3.1-.4.1-.1.1-.2.2-.3.3s-.1.3-.1.5v11.8l-13.1-12.8h-2.5v18.3h2.3v-13.8l13.3 13.4c.5.5 1.3.5 2 .5h.3v-18.3z"/><path d="m339.2 129.4h-1.2l-10 18.8h2.3l7.4-13.9 3.2 6.2h-5.2l-1 1.9h7.2l2.3 4.4c.3.5.6.9.9 1.1.4.2.9.3 1.5.3h2.4z"/><path d="m356.7 131.5v6.9h1.8s1.8 0 3-.6c1.2-.7 2-1.6 2-2.9 0-1.4-.9-2.6-2.2-3 0 0-.7-.3-2-.3h-2.6zm7.8 15.2-5.8-6.9h-2v8.4h-3.9v-18.3h7.2s3 0 4.9.9 2.8 2.3 2.8 4-1 3.7-4.8 4.7l7.5 8.8h-3s-.6 0-1.4-.2c-.7-.4-1.5-1.4-1.5-1.4"/><path d="m291.9 147.1c.5.2.9.3 1.3.3 1.4 0 2.5-1 2.5-2.4 0-1.3-.8-2.2-1.9-2.2-.7 0-1.2.3-1.9 1zm-.6-7.5h.6v3.5c.6-.5 1.1-.9 2-.9 1.4 0 2.4 1.1 2.4 2.6 0 1.8-1.2 3-3.1 3-.7 0-1.2-.1-1.9-.4z"/><path d="m298.1 150.5h-.6l1.9-3.8-2.3-4.3h.6l2 3.8 1.9-3.8h.6z"/></g></svg>