<svg enable-background="new 0 0 540 240" viewBox="0 0 540 240" xmlns="http://www.w3.org/2000/svg"><g fill="#ee3c23"><path d="m215.5 178v8.7h-10v-8.7h-4v19.5h4v-9.1h10v7c0 .4.1.8.3 1.1s.4.5.6.6.5.2.8.3.5.1.8.1h1.5v-19.5z"/><path d="m294.3 197.5v-19.5h-3.9l-7.9 14.5-8-14.5h-4v19.5h2.1v-15.1l8.5 15.1h1.1l8.2-15v12.9c0 .4.1.8.3 1.1s.4.5.6.6c.3.1.5.3.8.3s.5.1.8.1z"/><path d="m319.6 197.5-10.1-20h-1.2l-10.3 20h2.4l3.2-6.2h7.3l-1-2h-5.3l3.4-6.6 6.7 13.2c.3.5.6.9 1 1.2s.9.4 1.5.4z"/><path d="m340.6 178c-.1 0-.2 0-.4 0-.1 0-.3.1-.4.2s-.2.2-.3.3-.1.3-.1.6v12.6l-13.5-13.7h-2.6v19.5h2.4v-14.7l13.6 14.2c.6.5 1.3.5 2.1.5h.3v-19.5z"/><path d="m234.9 177.6h-1.2l-10.3 20h2.4l7.6-14.8 3.3 6.6h-5.3l-1 2h7.3l2.3 4.7c.3.5.6.9 1 1.2s.9.4 1.5.4h2.5z"/><path d="m252.8 179.7v7.4h1.9s1.9 0 3.1-.7 2.1-1.7 2.1-3.1-.9-2.7-2.2-3.2c0 0-.7-.4-2.1-.4zm8 16.3-5.9-7.4h-2.1v8.9h-4v-19.5h7.4s3.1 0 5.1 1 2.8 2.4 2.8 4.2-1.1 3.9-4.9 5l7.7 9.3h-3.1s-.6 0-1.4-.3c-.8-.2-1.6-1.2-1.6-1.2"/><path d="m186.2 196.3c.5.2.9.3 1.4.3 1.5 0 2.5-1.1 2.5-2.5 0-1.3-.8-2.3-1.9-2.3-.7 0-1.3.3-2 1.1zm-.6-7.9h.6v3.8c.6-.6 1.1-.9 2-.9 1.5 0 2.5 1.1 2.5 2.8 0 1.9-1.2 3.1-3.1 3.1-.7 0-1.2-.1-2-.4z"/><path d="m192.6 200h-.6l1.9-4-2.3-4.6h.6l2 4 2-4h.6z"/><path d="m314.3 130.9h-26.8v-53.8h8.9v46c0 2.5 2 4.5 4.6 4.5 2.5 0 4.6-2 4.6-4.5v-9.4h8.9v17.2zm-33.3-35.9c0 2.7-2.3 7.4-5.8 7.4 3.5 0 5.8 3 5.8 5.3v16.1c0 2.7-2.2 7-8.8 7h-17.7v-53.7h17.7c3.4 0 8.8 2.8 8.8 8.8zm-33.2 26.5c0 5.3-3.5 10.2-13.4 10.2s-13.4-6.3-13.4-10.2v-7.7h8.8v9.4c0 2.5 2 4.5 4.6 4.5 2.5 0 4.6-2.1 4.6-4.6v-45.9h8.9v44.3zm-22.4-23.8c2.8 0 5.1 2.3 5.1 5.1s-2.3 5.1-5.1 5.1-5.1-2.3-5.1-5.1 2.3-5.1 5.1-5.1m8.2-20.6-8.2 18.6-8.2-18.6zm-48.6 91.2h156.6v-128.3h-156.6zm83.7-63.5h-5.4v21.6h5.4c3.5 0 3.5-2.3 3.5-10.8 0-8.3 0-10.8-3.5-10.8m-.5-22.6h-4.8v18h4.8c3.2 0 4-.5 4-9 0-8.3-.8-9-4-9"/><path d="m346 163.9c0 2.5 2 4.5 4.5 4.5s4.5-2 4.5-4.5-2-4.5-4.5-4.5c-2.5.1-4.5 2.1-4.5 4.5m.9 0c0-2 1.6-3.6 3.6-3.6s3.6 1.6 3.6 3.6-1.6 3.6-3.6 3.6c-2 .1-3.6-1.5-3.6-3.6m1.9 2.6h.8v-2.2h.7l1.3 2.2h1l-1.4-2.2c.8-.1 1.4-.4 1.4-1.4 0-1.1-.7-1.5-1.9-1.5h-1.9zm.8-2.9v-1.5h1c.5 0 1.1.1 1.1.7 0 .7-.5.8-1.1.8z"/></g></svg>