<svg enable-background="new 0 0 540 240" viewBox="0 0 540 240" xmlns="http://www.w3.org/2000/svg"><g fill="#646c73"><path d="m192.1 110.4v33.6c1.3 0 2.3.3 3.6.3.9 0 5.4 0 5.9-.4.3-.3.1-10.6.1-11.5v-15.5c1.2-.3.6-.9 4.6-.9 7.1 0 6.3 7.6 6.3 12.8v14.3c0 1.1.2.9 1.3 1l4.7.1c1.4 0 2.4-.3 3.6-.3v-21.4c0-1.1-.1-2-.3-3-.1-.6-.4-2.2-.6-2.6.3-.1.6-.2.9-.4 3.3-1.3 8.7-1.3 10.2 3.3.8 2.4.6 5.8.6 8.9v14.3c0 .7-.3.7 1.5.9 2.6.2 5.1.2 7.6-.1.4-.1.7 0 .7-.4v-19.4c0-5.6-.8-9-3.4-12.1-.5-.6-1.4-1.4-2.1-1.8-4.2-2.6-11.4-3-16.2-1.4-1.4.5-2.1.7-3.4 1.3-.5.2-.6.4-1 .2-1.3-.6-1.8-1.3-4.4-1.8-6.3-1.3-12.9-.6-19 1.2-.4.2-1.2.3-1.2.8"/><path d="m110 96.6v47.7c.4 0 .9.1 1.4.2s1.1.1 1.7.1h3.2c1.3 0 2.3-.3 3.5-.3v-40.4c3.6-.8 8.5.2 10.3 3.6.9 1.7.8 3.1.8 5 0 4.4-4.5 7-7.7 8.6-.5.3-1.1.5-1.6.8.1.6.4.9.7 1.4l3.1 5.6c.3.5.5.9.8 1.4 2 3.4 4.3 7.9 6.3 11.2.3.5 1.2 2.5 1.7 2.7s-.3 0 .7.2c.2 0 .5.1.8.1 1.7.1 8.2.2 8.9-.2.4-.2-.2-.7-.5-1.3l-7.6-13.2c-.3-.6-3.2-5.4-3.3-5.9 1.5-.4 4.4-3.3 5.5-4.8 1.9-2.8 2.5-5.5 2.5-9.3 0-7.4-5.1-11.4-11.2-13.2-2-.6-4.8-.9-7.5-1h-4.2c-1.5 0-3 .1-4.2.3l-3.3.4c-.4-.1-.8-.2-.8.3"/><path d="m148.8 125.6c0 3.4.2 5.5 1.2 8.5.6 1.8 1.2 2.6 2.2 4.1.2.3.2.3.5.6.9 1.1 1.4 1.6 2.8 2.6 4.2 2.7 7.1 3 12.2 3 4.5 0 8.6-1.7 11.7-4.7 1.4-1.4 2.4-3.1 3.2-5 2-4.7 1.8-12.3 0-17-2.6-6.5-8.3-9.9-16.2-9.9-2.8 0-5.5.5-7.6 1.3-2.7 1.1-3 1.6-4.7 2.9-.6.5-1.1 1.1-1.6 1.8-1 1.4-1.7 2.6-2.3 4.3-.8 1.9-1.4 4.8-1.4 7.5m9.9.7c0-4.6 1.4-10.8 7.2-10.8 2.5 0 3.8.3 5.6 2 3.5 3.4 3.3 12.8.9 16.6-2.1 3.2-6.2 4-9.6 2.1-3.3-1.8-4.1-6.6-4.1-9.9"/><path d="m289.1 110.5v33.1c0 .5.6.4 1.6.5l4.4.1c1.4 0 2.4-.3 3.6-.3v-26.7c0-1.1 7.2-2.9 10 1.5 1.1 1.6 1.3 4.3 1.3 7v18.3c1.3 0 2.2.3 3.6.3 2 0 3.3 0 5.2-.2.4-.1.7 0 .7-.4v-19c0-8.1-1.9-13.6-9.2-15.8-3.9-1.2-11.2-1-15.2-.2l-4.9 1.2c-.3 0-1.1 0-1.1.6"/><path d="m252.7 109.8c0 1 .2 2.6.4 3.5.1.5.3 1 .5 1.5s.5 1 .6 1.5c.5 0 2.9-.7 4-.9 4-.7 10.3-1 12.4 2.9.5.9.6 2.3.6 3.6-7 0-15.5-.6-19.7 5.6-.9 1.4-1.3 3.1-1.3 5.3 0 4.4 1.9 7.2 4.6 9 3.3 2.1 9 2.7 13 2.4l3.7-.3c2.7-.3 7.7-1.7 8.3-1.7v-12c0-5.8.8-11.7-1.8-16.3-2.4-4.2-7.5-6-12.2-6-4.2 0-6.5.2-10.5 1.2-.8.2-2 .5-2.6.7m12.6 17.1h6v9.9c0 .5-1.6.7-2.2.8-3.3.4-7.6.6-9.8-2.3-1.3-1.7-1.3-5.1 1.1-6.8 1.1-.9 2.9-1.6 4.9-1.6"/><path d="m329.9 110.9c0 1.1 0 3.1.2 4.1.1.5 0 .5.7.5 1.3.1 2.9 0 4.3 0h8.6l-2.9 5.2c-.3.6-.7 1.1-1 1.7l-4 7c-.7 1.1-1.3 2.3-2 3.5l-6 10.5c.1.4.2.9.7.9h28.3c0-.9.3-1.6.3-2.7l-.1-3.8c-.1-1.7 0-1.2-5.9-1.2h-9.2c2.2-4.2 5.9-10.2 8.3-14.5l4.1-7.2c.3-.5 3.6-5.9 3.5-6.4 0-.3-.2-.8-.6-.8h-26.7c-.6-.1-.6 2.6-.6 3.2"/><path d="m366.8 115.4h13.4c-2.3 4.3-5.4 9.6-7.9 14-.7 1.2-1.3 2.3-2 3.5l-5.9 10.5c0 .3.2.4.3.8h28.6c0-2.4.7-4.3-.1-7.7h-14.8c.2-.8 15.9-27.5 15.9-28 0-.4-.1-.9-.5-.9h-26.7c-.8 0-.7 3.3-.8 3.8 0 .8.2 3.2.5 4"/><path d="m402.8 109.7c0 1 .2 2.6.4 3.5.1.5.3 1 .5 1.5s.5 1 .6 1.5c.5 0 2.9-.7 4-.9 4-.7 10.3-1 12.4 2.9.5.9.6 2.3.6 3.6-7 0-15.5-.6-19.7 5.6-.9 1.4-1.3 3.1-1.3 5.3 0 4.4 1.9 7.2 4.6 9 3.3 2.1 9 2.7 13 2.4l3.7-.3c2.7-.3 7.7-1.7 8.3-1.7v-12c0-5.8.8-11.7-1.8-16.3-2.4-4.2-7.5-6-12.2-6-4.2 0-6.5.2-10.5 1.2-.8.2-2 .5-2.6.7m12.5 17.1h6v9.9c0 .5-1.6.7-2.2.8-3.3.4-7.6.6-9.8-2.3-1.3-1.7-1.3-5.1 1.1-6.8 1.1-.9 2.9-1.6 4.9-1.6"/></g></svg>