<svg width="97" height="28" viewBox="0 0 97 28" fill="none" xmlns="http://www.w3.org/2000/svg">
<path d="M42.9266 21.6798C41.561 23.2966 39.7524 24.105 37.5377 24.105H37.3163C35.1017 24.105 33.2931 23.2966 31.9274 21.6798C30.5617 20.063 29.8604 17.4908 29.8604 13.9265C29.8604 10.3622 30.5617 7.75328 31.9274 6.13648C33.2931 4.51969 35.1017 3.71129 37.3163 3.71129H37.5377C39.7524 3.71129 41.561 4.51969 42.9266 6.13648C43.5541 6.87139 44.0339 7.82677 44.3661 8.96588L48.943 8.34121C48.3894 6.46719 47.5404 4.85039 46.3224 3.5643C44.1447 1.24934 41.2657 0.0367454 37.6854 0H37.1686C33.6252 0.0367454 30.7093 1.24934 28.5316 3.5643C26.317 5.95276 25.2097 9.37008 25.2097 13.8163V13.9265V14C25.2097 18.4462 26.317 21.8635 28.5316 24.252C30.7093 26.6037 33.6252 27.7795 37.1686 27.8163H37.6854C41.2657 27.7795 44.1447 26.6037 46.3224 24.252C47.7619 22.7087 48.7215 20.7612 49.2383 18.3727L44.6614 17.748C44.3292 19.4016 43.7756 20.7244 42.9266 21.6798ZM70.4617 15.6903C70.4617 17.6745 70.2033 19.1811 69.7235 20.21C69.096 21.5328 68.0994 22.5617 66.7338 23.3333C65.3681 24.0682 63.8178 24.4724 62.0831 24.4724C60.3114 24.4724 58.9826 24.0682 58.0598 23.2598C57.1371 22.4514 56.6942 21.4593 56.6942 20.2467C56.6942 19.4751 56.9156 18.7402 57.3216 18.1155C57.7276 17.4541 58.3182 16.9764 59.0933 16.6457C59.8684 16.315 61.1972 15.9843 63.0427 15.727C66.3647 15.2493 68.8007 14.6982 70.4617 14.0367V15.6903ZM75.3338 24.1785C75.1493 23.0761 75.0386 20.4304 75.0386 16.2415V10.2152C75.0386 8.23097 74.9647 6.83465 74.8171 6.06299C74.5587 4.81365 74.0789 3.78478 73.4145 2.97638C72.7501 2.16798 71.6797 1.50656 70.2771 0.955381C68.8376 0.440945 66.9921 0.183727 64.7037 0.183727C62.4153 0.183727 60.3852 0.47769 58.6135 1.10236C56.8787 1.72703 55.5499 2.64567 54.6272 3.78478C53.7044 4.96063 53.04 6.46719 52.634 8.37795L57.0633 8.96588C57.5431 7.09186 58.3182 5.76903 59.3148 5.03412C60.3483 4.26247 61.8985 3.89501 64.0393 3.89501C66.3277 3.89501 68.0256 4.40945 69.2067 5.43832C70.0557 6.17323 70.4986 7.49606 70.4986 9.33333C70.4986 9.48031 70.4617 9.88451 70.4617 10.5092C68.7269 11.0971 66.0325 11.6115 62.3783 12.0525C60.5697 12.273 59.241 12.4934 58.3551 12.7139C57.1371 13.0446 56.0667 13.5591 55.107 14.2205C54.1104 14.8451 53.3353 15.727 52.7448 16.7927C52.1542 17.895 51.8589 19.0709 51.8589 20.357C51.8589 22.5984 52.634 24.4357 54.2212 25.832C55.8083 27.2651 58.0598 28 60.9758 28C62.7844 28 64.4453 27.706 65.9955 27.1181C67.5458 26.5302 69.1698 25.5381 70.8308 24.105C70.9784 25.3543 71.2737 26.4567 71.7535 27.3753H76.4781C75.9244 26.3832 75.5184 25.3176 75.3338 24.1785ZM18.1598 13.3386C16.868 12.7874 14.6534 12.0892 11.4422 11.2441C9.22757 10.6562 7.8988 10.252 7.41896 10.105C6.64385 9.77428 6.05328 9.37008 5.68418 8.89239C5.31508 8.4147 5.13053 7.90026 5.13053 7.31234C5.13053 6.3937 5.57345 5.5853 6.4593 4.92388C7.38205 4.22572 8.85846 3.85827 10.9254 3.85827C12.6971 3.85827 14.0628 4.26247 15.0225 5.03412C15.9821 5.80577 16.5727 6.87139 16.7942 8.23097L21.2234 7.64304C20.9281 5.91601 20.4114 4.55643 19.6363 3.52756C18.8981 2.49869 17.7169 1.65354 16.1298 1.06562C14.5426 0.47769 12.6971 0.183727 10.5932 0.183727C9.22757 0.183727 7.8988 0.330709 6.68076 0.698163C5.46272 1.06562 4.50305 1.50656 3.80176 2.021C2.879 2.68241 2.1408 3.52756 1.58714 4.55643C1.03349 5.54856 0.775116 6.65092 0.775116 7.82677C0.775116 9.14961 1.10731 10.3255 1.77169 11.4278C2.39917 12.4934 3.39574 13.3386 4.6876 13.9265C5.94255 14.5512 8.2679 15.2861 11.5898 16.0945C14.0628 16.7192 15.613 17.2336 16.2036 17.6378C17.1264 18.2257 17.5693 19.0341 17.5693 20.063C17.5693 21.1654 17.0525 22.1575 16.056 23.0026C15.0225 23.8478 13.5092 24.2887 11.4053 24.2887C9.3383 24.2887 7.75116 23.811 6.57003 22.8556C5.42581 21.9003 4.72451 20.5407 4.50305 18.7402L0 19.4383C0.516744 22.2677 1.66096 24.399 3.50647 25.832C5.31508 27.2651 7.97262 28 11.4422 28C13.5461 28 15.4285 27.6325 17.0895 26.8976C18.7504 26.1627 20.0054 25.1339 20.8912 23.811C21.7771 22.4882 22.22 21.0919 22.22 19.5853C22.22 18.042 21.8509 16.7559 21.1496 15.727C20.4114 14.6614 19.4148 13.8898 18.1598 13.3386Z" fill="#6B6B6D"/>
<path fill-rule="evenodd" clip-rule="evenodd" d="M79.874 0.808472H84.414V9.92133H79.874V0.808472Z" fill="#6B6B6D"/>
<path fill-rule="evenodd" clip-rule="evenodd" d="M86.1855 0.808472H90.7255V9.92133H86.1855V0.808472Z" fill="#6B6B6D"/>
<path fill-rule="evenodd" clip-rule="evenodd" d="M92.46 0.808472H96.9999V9.92133H92.46V0.808472Z" fill="#6B6B6D"/>
</svg>
