<svg enable-background="new 0 0 540 240" viewBox="0 0 540 240" xmlns="http://www.w3.org/2000/svg"><path d="m388.5 70.2h11.5v65.1h-11.5z" fill="#ff4000"/><path d="m316.5 113c0-7.5-5.3-12.6-12.4-12.6-7 0-12.3 5.1-12.3 12.6s5.3 12.6 12.3 12.6c7.1-.1 12.4-5.1 12.4-12.6m0-22.3h11.5v44.6h-11.5v-5.3c-3.2 4-8 6.5-14.5 6.5-11.9 0-21.7-10.3-21.7-23.5 0-13.3 9.8-23.5 21.7-23.5 6.5 0 11.3 2.5 14.5 6.5zm-7.7-5.7h-11.1l7.1-12.2h13.8z" fill="#ff4000"/><path d="m367.8 129.5c0-3.8 3.2-7.1 7-7.1 3.9 0 7.1 3.3 7.1 7.1s-3.2 7-7.1 7c-3.8 0-7-3.2-7-7" fill="#2e3894"/><path d="m367.8 96.6c0-3.8 3.2-7.1 7-7.1 3.9 0 7.1 3.3 7.1 7.1s-3.2 7-7.1 7c-3.8 0-7-3.2-7-7" fill="#2e3894"/><path d="m358.4 125.2c-6.7 0-12.2-5.5-12.2-12.2s5.5-12.2 12.2-12.2h3.2v-11.4h-3.2c-13 0-23.5 10.5-23.5 23.5s10.5 23.5 23.5 23.5h3.2v-11.3h-3.2z" fill="#ff4000"/><path d="m257.3 90.2v.4h-6.4v11.1h6.4v33.5h11.5v-33.5h9.5v-11h-9.5v-.4c0-6.1 3.5-8 9.5-7.6v-11.1c-14.2-.9-21 6.3-21 18.6" fill="#ff4000"/><g fill="#2e3894"><path d="m228.7 89.4c-6 0-10.6 2.2-13.3 6.2v-5h-11.5v44.6h11.5v-24.1c0-7.8 4.2-11.1 9.8-11.1 5.2 0 8.8 3.1 8.8 9.2v26h11.5v-27.4c0-11.8-7.4-18.4-16.8-18.4m-39.9-18.3c-3.8 0-7 3.3-7 7.1s3.2 7 7 7c3.9 0 7.1-3.2 7.1-7 .1-3.8-3.1-7.1-7.1-7.1m-5.7 64.2h11.5v-44.6h-11.5zm-6.4-13.1c0 9.6-8.4 14.3-17.9 14.3-8.9 0-15.5-3.7-18.7-10.6l10-5.6c1.2 3.7 4.3 5.8 8.7 5.8 3.7 0 6.2-1.2 6.2-3.8 0-6.5-23-2.9-23-18.6 0-9.1 7.8-14.2 16.9-14.2 7.2 0 13.5 3.3 16.9 9.5l-9.8 5.4c-1.3-2.9-3.8-4.5-7.1-4.5-2.9 0-5.2 1.2-5.2 3.7-.1 6.3 23 2.2 23 18.6"/><path d="m390.9 162.4c-.8-.8-1.2-1.8-1.2-3s.4-2.2 1.2-3 1.8-1.2 2.9-1.2c1.2 0 2.2.4 3 1.2s1.2 1.8 1.2 3-.4 2.2-1.2 3-1.8 1.2-3 1.2c-1.1 0-2.1-.4-2.9-1.2m7.1-6.8c-1-1.5-2.5-2.3-4.4-2.3-1.6 0-3 .6-4.2 1.8-1.1 1.2-1.7 2.6-1.7 4.3s.6 3.1 1.7 4.3 2.5 1.8 4.2 1.8c1.9 0 3.4-.8 4.4-2.3v2h2v-11.6h-2zm-14.6-2h-2v11.6h2v-6.2c0-1.3.4-2.2 1.1-2.8s1.6-.8 2.6-.8v-2.1c-1.8 0-3 .7-3.6 2.2v-1.9zm-7.1 6.1c0 1.3-.3 2.3-.9 2.9s-1.4.9-2.4.9c-.9 0-1.6-.3-2.1-.8s-.8-1.3-.8-2.2v-7h-2v7.1c0 1.5.4 2.6 1.2 3.5s1.9 1.3 3.3 1.3c1.7 0 2.9-.7 3.8-2v1.7h2v-11.6h-2v6.2zm-10.5-6.1h-3.1v-3.3l-2 .6v2.6h-2.3v2h2.3v6.3c0 1.4.4 2.4 1.2 2.9s2.1.7 3.9.4v-1.8c-.7 0-1.3 0-1.7 0-.5 0-.8-.1-1-.4-.2-.2-.3-.6-.3-1.2v-6.3h3.1v-1.8zm-18.5 8.8c-.8-.8-1.2-1.8-1.2-3s.4-2.2 1.2-3 1.8-1.2 2.9-1.2c1.2 0 2.2.4 3 1.2s1.2 1.8 1.2 3-.4 2.2-1.2 3-1.8 1.2-3 1.2c-1.1 0-2.1-.4-2.9-1.2m7.1-6.8c-1-1.5-2.5-2.3-4.4-2.3-1.6 0-3 .6-4.2 1.8-1.1 1.2-1.7 2.6-1.7 4.3s.6 3.1 1.7 4.3 2.5 1.8 4.2 1.8c1.9 0 3.4-.8 4.4-2.3v2h2v-11.6h-2zm-20.7-.3v-1.7h-2v11.6h2v-6.2c0-1.3.3-2.3.9-2.9s1.4-.9 2.4-.9c.9 0 1.6.3 2.1.8s.8 1.3.8 2.2v7h2v-7.1c0-1.5-.4-2.6-1.2-3.5s-1.9-1.3-3.3-1.3c-1.6 0-2.9.6-3.7 2m-5.1-1.7h-2v11.6h2zm-.1-2.5c.3-.3.4-.6.4-1s-.1-.7-.4-1-.6-.4-1-.4-.7.1-1 .4-.4.6-.4 1 .1.7.4 1 .6.4 1 .4c.5 0 .8-.2 1-.4m-10.1 4.5c.4-.3.9-.4 1.5-.4 1.2 0 2.1.5 2.5 1.5l1.7-1c-.4-.8-.9-1.4-1.7-1.8-.7-.4-1.6-.6-2.5-.6-1.2 0-2.2.3-2.9 1-.8.7-1.2 1.5-1.2 2.5 0 .8.2 1.4.7 1.9.4.5 1 .8 1.6 1s1.3.4 1.9.6 1.2.4 1.6.7.7.6.7 1.1-.2.9-.7 1.2c-.4.3-1 .4-1.6.4-.7 0-1.3-.2-1.8-.5s-.9-.8-1-1.3l-1.7 1c.3.8.9 1.5 1.7 2s1.8.7 2.9.7c1.3 0 2.3-.3 3.1-1 .8-.6 1.2-1.5 1.2-2.5 0-.8-.2-1.5-.7-2-.4-.5-1-.9-1.6-1.1s-1.3-.4-1.9-.6-1.2-.4-1.6-.7c-.5-.3-.7-.6-.7-1.1-.1-.4.1-.8.5-1m-9.9 0c.4-.3.9-.4 1.5-.4 1.2 0 2.1.5 2.5 1.5l1.7-1c-.4-.8-.9-1.4-1.7-1.8-.7-.4-1.6-.6-2.5-.6-1.2 0-2.2.3-2.9 1-.8.7-1.2 1.5-1.2 2.5 0 .8.2 1.4.7 1.9s1 .8 1.6 1 1.3.4 1.9.6 1.2.4 1.6.7.7.6.7 1.1-.2.9-.7 1.2c-.4.3-1 .4-1.6.4-.7 0-1.3-.2-1.8-.5s-.9-.8-1-1.3l-1.7 1c.3.8.9 1.5 1.7 2s1.8.7 2.9.7c1.3 0 2.3-.3 3.1-1 .8-.6 1.2-1.5 1.2-2.5 0-.8-.2-1.5-.7-2-.4-.5-1-.9-1.6-1.1s-1.3-.4-1.9-.6-1.2-.4-1.6-.7c-.5-.3-.7-.6-.7-1.1-.1-.4.1-.8.5-1m-14.5 6.8c-.8-.8-1.2-1.8-1.2-3s.4-2.2 1.2-3 1.8-1.2 2.9-1.2c1.2 0 2.2.4 3 1.2s1.2 1.8 1.2 3-.4 2.2-1.2 3-1.8 1.2-3 1.2c-1.1 0-2.1-.4-2.9-1.2m7.1-6.8c-1-1.5-2.5-2.3-4.4-2.3-1.6 0-3 .6-4.2 1.8-1.1 1.2-1.7 2.6-1.7 4.3s.6 3.1 1.7 4.3 2.5 1.8 4.2 1.8c1.9 0 3.4-.8 4.4-2.3v2h2v-11.6h-2zm-21.1-2h-2v11.6h2v-6.2c0-1.3.4-2.2 1.1-2.8s1.6-.8 2.6-.8v-2.1c-1.8 0-3 .7-3.6 2.2v-1.9zm-13.4 8.7c-.8-.8-1.2-1.8-1.2-3s.4-2.2 1.2-3 1.8-1.2 2.9-1.2c1.2 0 2.1.4 2.9 1.2s1.2 1.8 1.2 3-.4 2.2-1.2 3-1.8 1.2-2.9 1.2c-1.2 0-2.1-.4-2.9-1.2m9-2.9c0-1.7-.6-3.2-1.8-4.3-1.2-1.2-2.6-1.8-4.3-1.8s-3.1.6-4.3 1.8-1.8 2.6-1.8 4.3.6 3.2 1.8 4.3c1.2 1.2 2.6 1.8 4.3 1.8s3.2-.6 4.3-1.8c1.2-1.1 1.8-2.6 1.8-4.3m-23.1 3c-.8-.8-1.2-1.8-1.2-3s.4-2.2 1.2-3 1.8-1.2 3-1.2 2.1.4 2.9 1.2 1.2 1.8 1.2 3-.4 2.2-1.2 3-1.8 1.2-2.9 1.2c-1.2 0-2.2-.4-3-1.2m-1.2-6.8v-2h-2v16.3h2v-6.6c1 1.5 2.5 2.3 4.4 2.3 1.6 0 3-.6 4.2-1.8 1.1-1.2 1.7-2.6 1.7-4.3s-.6-3.1-1.7-4.3-2.5-1.8-4.2-1.8c-1.9-.1-3.4.7-4.4 2.2m-19.2 6.7c-.8-.8-1.2-1.8-1.2-3s.4-2.2 1.2-3 1.8-1.2 2.9-1.2c1.2 0 2.1.4 2.9 1.2s1.2 1.8 1.2 3-.4 2.2-1.2 3-1.8 1.2-2.9 1.2c-1.2 0-2.1-.4-2.9-1.2m9-2.9c0-1.7-.6-3.2-1.8-4.3-1.2-1.2-2.6-1.8-4.3-1.8s-3.1.6-4.3 1.8-1.8 2.6-1.8 4.3.6 3.2 1.8 4.3c1.2 1.2 2.6 1.8 4.3 1.8s3.2-.6 4.3-1.8c1.2-1.1 1.8-2.6 1.8-4.3m-16.5-5.8h-2v11.6h2v-6.2c0-1.3.4-2.2 1.1-2.8s1.6-.8 2.6-.8v-2.1c-1.8 0-3 .7-3.6 2.2v-1.9zm-7.7 0h-2v11.6h2v-6.2c0-1.3.4-2.2 1.1-2.8s1.6-.8 2.6-.8v-2.1c-1.8 0-3 .7-3.6 2.2v-1.9zm-14.1 8.8c-.8-.8-1.2-1.8-1.2-3s.4-2.2 1.2-3 1.8-1.2 2.9-1.2c1.2 0 2.2.4 3 1.2s1.2 1.8 1.2 3-.4 2.2-1.2 3-1.8 1.2-3 1.2-2.1-.4-2.9-1.2m7-6.8c-1-1.5-2.5-2.3-4.4-2.3-1.6 0-3 .6-4.2 1.8-1.1 1.2-1.7 2.6-1.7 4.3s.6 3.1 1.7 4.3 2.5 1.8 4.2 1.8c1.9 0 3.4-.8 4.4-2.3v2h2v-11.6h-2zm-13.6 9.1c.9-.5 1.6-1.3 2.1-2.2l-1.7-1c-.3.6-.8 1.1-1.4 1.5s-1.3.5-2.1.5c-1.2 0-2.1-.4-2.9-1.2s-1.2-1.8-1.2-2.9c0-1.2.4-2.2 1.2-3s1.8-1.2 2.9-1.2c.8 0 1.5.2 2.1.6s1.1.9 1.4 1.5l1.7-1c-.4-.9-1.1-1.7-2-2.2s-1.9-.8-3.1-.8c-1.8 0-3.2.6-4.4 1.8s-1.7 2.6-1.7 4.4c0 1.7.6 3.2 1.7 4.4 1.2 1.2 2.6 1.8 4.4 1.8 1.1-.2 2.1-.5 3-1m-19.4-5c0 1.3-.3 2.3-.9 2.9s-1.4.9-2.4.9c-.9 0-1.6-.3-2.1-.8s-.8-1.3-.8-2.2v-7h-2v7.1c0 1.5.4 2.6 1.2 3.5s1.9 1.3 3.3 1.3c1.7 0 2.9-.7 3.8-2v1.7h2v-11.6h-2v6.2zm-13.7-3.7c.7.6 1.1 1.4 1.3 2.5h-7.8c.2-1 .6-1.8 1.3-2.5.7-.6 1.6-.9 2.7-.9 1 .1 1.8.4 2.5.9m3.3 4.3c0-.3.1-.6.1-.9 0-1.7-.5-3.1-1.6-4.3s-2.5-1.8-4.2-1.8c-1.8 0-3.3.6-4.4 1.7-1.1 1.2-1.7 2.6-1.7 4.4s.6 3.2 1.7 4.4c1.2 1.2 2.7 1.7 4.5 1.7 2.3 0 4-.9 5.1-2.6l-1.7-1c-.7 1.1-1.8 1.7-3.3 1.7-1.1 0-2-.3-2.8-.9s-1.2-1.4-1.4-2.4zm-15.3 3.9c1-.8 1.6-2 1.6-3.4 0-.3 0-.7-.1-1s-.2-.6-.2-.8c-.1-.2-.2-.5-.5-.7-.2-.2-.4-.4-.5-.6-.2-.2-.4-.3-.7-.5s-.6-.3-.8-.4-.5-.2-.9-.3-.7-.2-.9-.3-.5-.2-.9-.3c-1.3-.4-2.1-.8-2.6-1.2s-.8-.9-.8-1.6.3-1.3.8-1.8c.5-.4 1.3-.7 2.1-.7 1.8 0 3 .8 3.7 2.5l1.8-1c-.5-1.1-1.2-1.9-2.1-2.6-1-.7-2.1-1-3.4-1-1.4 0-2.6.4-3.6 1.2s-1.5 1.9-1.5 3.4c0 .6.1 1.1.3 1.6s.4.8.7 1.1.7.6 1.2.8c.5.3 1 .5 1.3.6.4.1.9.3 1.6.5 1.4.4 2.4.8 2.9 1.2.6.4.9 1 .9 1.7 0 .8-.3 1.4-.9 1.8-.6.5-1.4.7-2.6.7-2.3 0-3.7-1-4.3-3l-1.9 1.1c.4 1.2 1.2 2.2 2.3 2.9s2.4 1.1 3.9 1.1c1.7.3 3-.1 4.1-1"/></g></svg>