<svg enable-background="new 0 0 540 240" viewBox="0 0 540 240" xmlns="http://www.w3.org/2000/svg"><path d="m140 63.1h260v113.7h-260z" fill="#f47f32"/><g fill="#fff"><path d="m264.6 98.9h-39.3l-3.2 10.3h13.2l-9.8 31.9h12.9l9.7-31.9h13.3z"/><path d="m179.7 105.5-3.4 11.2c-1.5 5 1.2 8.6 6.1 8.6h16c.6 0 1.2.6.9 1.4l-.9 2.8c-.2.8-1.1 1.4-1.8 1.4h-25.1l-3.1 10.3h32.4c3.6 0 6.6-1.7 8.2-6.8l3.2-10.6c1.5-5-1.3-8.6-5.8-8.6h-16c-.9 0-1.2-.6-1-1.4l.9-2.8c.3-.9.9-1.7 2.1-1.7h23.1l3.1-10.3h-30.6c-4.4-.1-7.2 2.7-8.3 6.5"/><path d="m344.3 130.8 9.7-31.9h-12.8l-12.9 42.2h40.1l3.2-10.3z"/><path d="m320.1 98.9-4.9 16.2h-15.4l5-16.2h-12.3l-12.9 42.2h12.3l4.9-16.1h15.4l-5 16.1h12.7l12.9-42.2z"/><path d="m271.2 98.9-12.9 42.2h12.9l12.9-42.2z"/></g></svg>