<svg enable-background="new 0 0 540 240" viewBox="0 0 540 240" xmlns="http://www.w3.org/2000/svg"><g fill="#1d1d1b"><path d="m360.6 96.1h8.8v23.6c0 4.1-1.7 12.6-13.9 12.6s-13.5-7.9-13.5-12.4v-4.3h8.5v4.2c0 2.6 1.7 5 4.9 5s5.2-1.8 5.2-4.9z"/><path d="m387.9 115.6c0-2.4-1.3-4.7-4.3-4.7-2.9 0-4 2.1-4 4.7zm-4.9-10.1c6.9 0 12.9 2.7 12.9 15.2h-16.3c0 4 1.6 5.6 4.4 5.6s3.8-2.3 3.8-2.3h8c0 3.6-4.8 8.4-12.1 8.3-8.3 0-12.4-6.3-12.4-12.7.1-6.6 3.7-14.1 11.7-14.1"/><path d="m414.1 115.6c0-2.4-1.3-4.7-4.3-4.7-2.9 0-4 2.1-4 4.7zm-4.9-10.1c6.9 0 12.9 2.7 12.9 15.2h-16.3c0 4 1.6 5.6 4.4 5.6s3.8-2.3 3.8-2.3h8c0 3.6-4.8 8.4-12.1 8.3-8.3 0-12.4-6.3-12.4-12.7.1-6.6 3.7-14.1 11.7-14.1"/><path d="m432.3 119.2c-.1 4.9.9 7.5 4.9 7.5s4.5-4.4 4.5-7.8-.8-6.7-4.9-6.7c-2.6 0-4.5 2.1-4.5 7m-8.1 20.6v-33.3h8.1v3.8c.3-.6.5-1.1 1.1-1.9.5-.7 2.1-2.6 6.1-2.6 4.1 0 10.4 2.9 10.4 13.1 0 7.9-3.8 13.7-10.3 13.7-3.6 0-5.2-1.3-6.1-2-.6-.5-.8-.7-1.1-1.2v10.3h-8.2z"/><path d="m430.5 140.2c.3 0 .6 0 .7.1.3.1.4.4.4.7 0 .2-.1.4-.3.5-.1.1-.2.1-.4.1.2 0 .4.1.5.3.1.1.1.3.1.4v.2.2.1h-.4v-.1-.2c0-.3-.1-.5-.3-.6-.1-.1-.3-.1-.5-.1h-.3v1.1h-.5v-2.7zm.5.4c-.1-.1-.3-.1-.6-.1h-.4v1h.4c.2 0 .3 0 .4-.1.2-.1.3-.2.3-.4.1-.2 0-.3-.1-.4m1.3 2.7c-.5.5-1 .7-1.7.7s-1.2-.2-1.7-.7-.7-1.1-.7-1.8.2-1.3.7-1.8 1-.7 1.7-.7 1.2.2 1.7.7.7 1.1.7 1.8c0 .8-.3 1.3-.7 1.8m-3.2-3.2c-.4.4-.6.9-.6 1.5s.2 1.1.6 1.5.9.6 1.5.6 1.1-.2 1.5-.6.6-.9.6-1.5-.2-1.1-.6-1.5-.9-.6-1.5-.6c-.6-.1-1.1.1-1.5.6"/><path d="m302.9 95.9h3v36.6h-3z"/><path d="m255.9 114.7c-3.7.2-5.5 4.6-5.5 7.8 0 2.4 1.1 5 4.2 5 4.2 0 5.6-5 5.6-7.9 0-1.5-.3-2.4-.7-3.1-.6-1-1.8-1.9-3.6-1.8m.6-5.1c7 0 10.3 4.9 10.3 10.1 0 6.2-4.5 12.9-12.5 12.9-8.4 0-10.3-6.7-10.3-10.4 0-5.4 4.2-12.6 12.5-12.6m-165.1-7.3h22.9l-1.4 5.8h-7.6l-5.3 24h-7.3l5.3-24h-8zm28.6 8-.7 3.2c.4-.4.7-.8 1.1-1.2 1.2-1.2 3.1-2.3 5.3-2.3h1.2l-1.3 5.7c-1.8.1-3.9.2-5.5 1.3-1.8 1.3-2.3 3.4-2.7 5.1l-2.2 9.8h-6.4l4.8-21.7h6.4zm24.3 21.7h-6.2c-.1-.3-.2-.6-.2-1 0-.2.3-1.6.4-2.1-.5.8-.8 1.4-1.9 2.2-1.9 1.3-4 1.5-5.1 1.5-6.3 0-6.5-5.3-6.5-6.1 0-1.4.5-2.9 1.2-4 2.5-3.6 7.2-3.9 14.4-4.3.2-.8.4-1.7.4-2.3 0-2.1-2.1-2.2-2.9-2.2-2.9 0-3.5 1.9-3.8 3.1l-6.4-.2c.6-1.9 1.1-3.5 3.1-5 2.3-1.8 5.4-2 7.8-2 1.7 0 8.5 0 8.5 6 0 1.1-.2 2.1-.4 3.1l-2.5 11.4c-.1.3-.2.7-.2 1.1.1.2.2.5.3.8m-4.8-9.7c-2.3 0-5.8.1-7.6 1.8-.5.5-.7 1-.7 1.7 0 2.2 2 2.2 2.6 2.2 1.3 0 2.3-.5 3-.9 1.8-1.3 2.3-3.3 2.7-4.8m18.3-12-.7 3.1c1.1-1.4 2.9-3.7 6.7-3.7 3.9 0 5.1 2.5 5.5 3.5 1-1.3 2.8-3.5 6.5-3.5 2.3 0 6.2 1.3 6.2 5.8 0 1.3-.3 2.8-.6 4.2l-2.7 12.4h-6.4l2.7-12.2c.2-.9.5-2.3.5-2.8 0-1.2-.7-2.4-2.5-2.4-1.2 0-2.4.7-3 1.5-.7.8-1 2.2-1.3 3.3l-2.9 12.5h-6.4l2.9-12.9c.2-.8.4-1.4.4-2.2 0-1.9-1.5-2.3-2.4-2.3-1.2 0-2.4.8-3.1 1.7-.5.7-1 1.9-1.2 2.6l-3 13.1h-6.4l4.9-21.7zm38.1-.7c7 0 10.3 4.9 10.3 10.1 0 6.2-4.5 12.9-12.5 12.9-8.4 0-10.3-6.7-10.3-10.4 0-5.4 4.2-12.6 12.5-12.6m-.5 5.1c-3.7.2-5.5 4.6-5.5 7.8 0 2.4 1.1 5 4.2 5 4.2 0 5.6-5 5.6-7.9 0-1.5-.3-2.4-.7-3.1-.6-1-1.8-1.9-3.6-1.8m33.2 3.1-3.2 14.2h-6.4l2.8-12.8c.1-.7.2-1.4.2-2 0-2-1.6-2.4-2.4-2.4-1 0-1.9.5-2.6 1.2-1 1-1.6 2.8-1.9 4.5l-2.6 11.5h-6.4l4.8-21.7h6.4l-.6 2.6c1.1-1.2 2.9-3.2 6.2-3.2 3.2 0 5.9 1.9 5.9 5.6 0 .9-.1 1.7-.2 2.5m7.6-13.6h6.4l-1.3 6h3.7l-.9 3.9h-3.7l-2 9.1c-.1.6-.3 1.4-.3 1.9 0 1.8 1.2 1.9 2.4 1.9h1.2l-1.1 5c-1.2.2-2.4.3-3.7.3-1.1 0-2.1-.1-3-.5-1.5-.6-2.6-1.9-2.6-4.3 0-.8.2-1.6.3-2.3l2.4-11.1h-2.9l.9-3.9h2.8z"/></g></svg>