<svg enable-background="new 0 0 540 240" viewBox="0 0 540 240" xmlns="http://www.w3.org/2000/svg"><path d="m127.8 99.3h4.6l-16.7 41.4h-9l-16.7-41.4h1.7c4.2 0 7 1.3 8.5 4.3l12.9 32zm20.7 41.4h-7.8v-41.4h7.8zm266.1-19.2v-3c.6-13.7 9-19.2 21.4-19.2h14c0 3.4-2.8 6.9-6.6 6.9h-7.4c-6.6 0-10.8 5.1-10.8 10.4h23v6.9h-23c0 5.4 4.2 10.4 10.8 10.4h12.3v6.9h-12.3c-12.4-.1-20.8-5.7-21.4-19.3m-236.8 20.1c-.5.1-1.2.1-1.8.1-10.4 0-19.1-4.3-19.1-13.3s8.7-13.3 19.1-13.3h1.8 12.6v-6.2c0-3.6-2.9-5.3-5.7-5.3h-6.9-11.6c-2.6 0-4.7-2-5.3-4.3h17 6.9c7.4 0 13.5 4.3 13.5 9.6v19.3c-.1 11.1-9.2 13.3-20.5 13.4m0-22.2h-1.8c-6.5 0-10.7 3.8-10.7 9s4.2 9 10.7 9c.7 0 1.3 0 1.8-.1 7.6-.2 12.6-1.9 12.6-9.6v-8.3zm92.3-17.9c3.3 2.3 5.2 5.8 5.2 10.9v28.4c-1.8 0-3.6-.5-5.2-1.4-2.8-1.7-4.9-4.6-4.9-8.3v-18.7c0-3.8-2.5-7.1-7.9-7.1-1.5 0-2.8.2-3.8.7-2.7 1.2-4.1 3.6-4.1 6.4v28.4h-10.1v-28.4c0-1.3-.3-2.6-.9-3.6-1.2-2.1-3.5-3.5-7-3.5-5.4 0-7.9 3.3-7.9 7.1v28.4h-10.1v-28.3c0-10 7.3-14.1 18-14.1 2.5 0 4.8.4 7 1 2.3.7 4.3 1.8 6 3 2.5-1.8 5.6-3.2 9.1-3.7 1.3-.2 2.5-.3 3.8-.3 5.3-.1 9.7.9 12.8 3.1m28.9 33.1c.6.1 1.2.1 1.8.1 8.1 0 12-1.2 12-7.5v-6.3h-12c-.6 0-1.2.1-1.8.2-4.3.6-6.8 3.4-6.8 6.8 0 3.3 2.4 6.1 6.8 6.7m0-28.5h-7.3c-3.9 0-6.6-3.5-6.6-6.9h14 9.9c7.2 0 14 4.3 14 10.3v18c0 12.6-11.1 14.1-22.1 14.1-.6 0-1.2-.1-1.8-.1-9.1-.5-17.4-4.7-17.4-13.8s8.3-13.3 17.4-13.8c.6 0 1.2-.1 1.8-.1h12v-4.3c0-2.4-1.7-3.5-3.9-3.5h-10zm56.6 26-9.5-12.1h6.5c1 0 2-.1 3-.3 3.7-.9 6-3.5 6-6.6s-2.3-5.7-6-6.5c-.9-.2-1.9-.4-3-.4h-9.8v34.6h-5.9-4.3v-41.5h4.3 17.7.9c11.5.3 16.6 6.4 16.6 13.8 0 5.5-4.6 10.4-10.7 12.1l12.9 15.5h-6.3c-4.2 0-6.9-1.2-8.5-3.5zm39.7 8.6h-5.8v-34.6h-7.7-6.2v-6.9h6.2 13.5 14.6 4.7c.1.2.1.4 0 .6-.2 2.6-2.1 5.2-4.7 6-.6.2-1.2.3-1.9.3h-8.5v34.6z" fill="#702c85"/></svg>