<svg xmlns="http://www.w3.org/2000/svg" viewBox="0 0 5946 601" fill="currentColor" preserveAspectRatio="xMidYMid meet" aria-label="EAT + KITCHEN">
<g transform="translate(-151.187669,789.997270) scale(0.100000,-0.100000)"
 stroke="none">
<path d="M42355 7890 c-27 -5 -80 -13 -116 -18 -37 -6 -79 -17 -95 -25 -16 -8
-44 -18 -62 -22 -47 -10 -185 -88 -272 -154 -81 -62 -260 -265 -260 -296 0 -6
-8 -22 -17 -35 -23 -32 -57 -114 -91 -215 l-27 -80 0 -2150 0 -2150 28 -80
c28 -79 60 -156 78 -185 5 -8 14 -26 20 -40 12 -30 57 -98 83 -125 10 -11 31
-37 47 -58 31 -43 179 -168 231 -197 81 -44 176 -90 187 -90 7 0 26 -7 44 -17
87 -45 519 -78 697 -53 176 25 256 41 315 64 72 30 208 100 249 130 49 35 252
241 269 272 9 16 25 47 36 69 12 22 25 47 30 55 19 29 61 129 61 143 0 8 10
43 22 78 22 63 23 72 26 703 2 478 0 647 -9 668 -22 53 -84 85 -180 93 -46 3
-120 13 -164 21 -44 7 -127 18 -185 24 -58 6 -139 17 -180 25 -145 28 -212 30
-240 7 l-25 -20 -5 -650 -5 -650 -41 -48 c-97 -115 -294 -107 -379 16 l-30 43
-3 1911 c-2 1051 0 1936 4 1966 9 82 81 152 174 169 99 18 185 -10 240 -80
l40 -51 0 -459 0 -460 26 -26 c25 -24 29 -25 100 -19 42 4 86 11 99 16 12 5
70 14 126 20 57 7 145 20 194 30 50 10 124 21 165 25 114 9 207 38 244 74 l31
31 0 468 c0 457 -1 468 -23 531 -12 35 -22 69 -22 76 0 30 -121 262 -161 310
-87 104 -251 255 -276 255 -5 0 -24 11 -42 24 -19 14 -46 28 -62 31 -15 4 -33
12 -39 20 -6 8 -26 17 -43 21 -18 3 -43 12 -57 19 -80 41 -597 72 -755 45z"/>
<path d="M1675 7823 c-40 -11 -105 -65 -132 -111 l-28 -47 -3 -2729 c-1 -1692
1 -2749 7 -2781 13 -68 45 -114 106 -153 l50 -32 876 2 876 3 47 38 c93 77 96
91 96 438 0 335 -5 362 -77 431 -63 60 -80 62 -520 68 l-402 5 -33 34 -33 34
-3 763 c-3 859 -6 815 70 856 42 22 52 23 385 28 l341 5 44 31 c29 22 54 52
76 95 l33 64 -3 300 c-3 299 -3 300 -28 345 -73 131 -104 140 -488 140 -346 0
-368 3 -406 58 l-26 38 0 506 0 506 27 34 c15 18 29 35 31 38 2 3 184 7 405
10 445 6 455 7 530 78 73 68 77 92 77 428 l0 302 -25 51 c-14 28 -46 67 -72
88 l-46 38 -866 1 c-476 1 -875 0 -886 -3z"/>
<path d="M7363 7820 c-45 -18 -76 -140 -88 -350 -4 -58 -13 -145 -21 -195 -7
-49 -21 -163 -29 -253 -8 -89 -19 -181 -24 -205 -5 -23 -13 -91 -16 -152 -4
-60 -15 -164 -26 -230 -10 -66 -19 -140 -19 -165 0 -25 -7 -92 -16 -150 -8
-58 -22 -172 -29 -255 -8 -82 -21 -208 -30 -280 -8 -71 -23 -188 -31 -260 -9
-71 -22 -197 -30 -280 -7 -82 -18 -177 -23 -210 -6 -33 -15 -118 -21 -190 -6
-71 -17 -170 -25 -220 -8 -49 -19 -146 -24 -215 -6 -69 -15 -152 -20 -185 -6
-33 -15 -118 -21 -190 -6 -71 -16 -155 -21 -185 -6 -30 -16 -122 -24 -205 -12
-142 -23 -240 -61 -540 -8 -71 -21 -195 -29 -275 -7 -80 -20 -199 -28 -265
-30 -225 -34 -325 -17 -359 l15 -31 452 -3 451 -2 32 40 c31 39 31 40 36 182
3 79 9 166 15 193 5 28 16 152 24 278 14 220 15 228 41 262 37 48 98 65 239
65 231 0 260 -26 270 -250 3 -80 10 -165 16 -190 5 -25 16 -147 23 -271 13
-215 15 -228 40 -268 l26 -41 458 2 457 3 13 28 c15 31 4 228 -24 422 -7 55
-19 156 -24 225 -6 69 -17 161 -25 205 -7 44 -16 130 -20 190 -4 61 -13 148
-20 195 -8 47 -19 148 -25 225 -6 77 -16 156 -21 175 -5 19 -14 96 -20 170 -6
74 -17 173 -24 220 -8 47 -19 146 -25 220 -6 74 -17 173 -25 220 -8 47 -17
132 -20 190 -4 58 -13 141 -21 185 -7 44 -18 141 -24 215 -6 74 -17 173 -25
220 -8 47 -17 132 -20 190 -4 58 -13 141 -20 185 -8 44 -19 143 -25 220 -7 77
-16 163 -21 190 -6 28 -17 118 -24 200 -13 144 -26 255 -61 540 -9 72 -22 195
-29 275 -8 80 -20 199 -29 265 -8 66 -20 174 -26 239 -14 140 -39 218 -76 234
-30 14 -1226 16 -1261 2z m661 -1647 c3 -10 12 -139 21 -288 8 -148 20 -290
25 -315 5 -25 11 -139 15 -253 3 -115 10 -218 14 -230 5 -12 14 -119 20 -237
7 -118 20 -298 29 -400 27 -312 27 -431 2 -463 -48 -60 -203 -80 -270 -34 -71
48 -72 52 -60 242 6 94 15 186 20 205 5 19 12 132 15 250 4 118 11 231 15 250
5 19 16 161 25 315 9 154 20 325 26 380 16 153 28 349 28 458 1 83 4 100 21
117 25 25 47 26 54 3z"/>
<path d="M12443 7823 c-40 -8 -121 -99 -138 -155 -19 -66 -22 -557 -3 -638 17
-73 68 -128 152 -163 65 -26 72 -27 266 -27 l199 0 35 -37 36 -38 0 -2339 0
-2339 22 -45 c39 -76 20 -73 444 -70 l379 3 38 27 c22 15 53 49 70 75 l32 48
5 2320 5 2320 27 35 27 35 223 5 c215 6 225 7 278 32 73 35 93 53 124 113 l26
50 0 313 0 313 -26 45 c-14 24 -47 61 -72 82 l-45 37 -1041 1 c-573 1 -1051 0
-1063 -3z"/>
<path d="M25923 7822 c-40 -12 -110 -80 -134 -129 l-24 -48 0 -2750 0 -2750
28 -50 c17 -30 48 -65 80 -88 l51 -37 336 0 337 0 46 31 c25 17 58 51 74 77
l28 47 3 745 3 745 32 38 c39 46 102 60 153 34 30 -15 84 -107 84 -143 0 -10
9 -38 20 -62 10 -23 22 -59 26 -80 4 -20 15 -53 25 -72 11 -19 19 -45 19 -58
0 -13 8 -44 19 -70 29 -72 101 -292 111 -340 5 -24 16 -58 24 -75 16 -38 51
-143 70 -212 8 -27 21 -68 30 -90 8 -22 15 -48 16 -58 0 -10 8 -34 19 -55 10
-20 21 -55 25 -77 4 -22 14 -50 22 -62 7 -12 16 -41 20 -65 9 -58 50 -138 87
-168 l31 -25 456 -3 c250 -1 465 0 478 3 15 4 29 20 39 43 17 41 0 136 -39
214 -10 21 -18 47 -18 58 0 11 -8 37 -19 58 -10 20 -22 53 -26 72 -4 19 -16
51 -26 70 -11 19 -19 44 -19 55 0 11 -8 36 -18 55 -11 19 -22 50 -25 68 -4 19
-13 48 -21 65 -16 34 -48 124 -71 197 -8 25 -28 83 -45 130 -17 47 -37 105
-44 130 -8 25 -21 59 -30 75 -9 17 -16 38 -16 48 0 11 -7 33 -14 50 -19 42
-54 139 -72 202 -7 28 -18 59 -24 70 -13 26 -48 126 -66 190 -8 28 -20 64 -28
80 -16 32 -39 100 -61 177 -7 25 -20 57 -28 70 -8 12 -18 41 -22 63 -4 22 -12
49 -18 60 -15 27 -55 140 -68 190 -5 21 -16 53 -24 70 -17 37 -51 134 -69 195
-7 25 -19 56 -25 69 -7 12 -19 44 -26 69 -22 77 -45 145 -61 177 -23 48 -44
142 -44 194 0 47 11 82 51 167 10 22 19 45 19 51 0 6 6 16 14 22 8 7 17 24 20
39 3 15 17 50 30 77 63 131 145 309 225 490 20 45 45 100 89 195 16 36 40 88
52 115 12 28 31 70 43 95 38 83 65 145 92 205 15 33 31 67 36 75 5 8 12 22 15
30 8 19 50 112 74 165 11 22 22 52 26 67 3 15 12 32 20 39 8 6 14 17 14 23 0
6 13 38 30 71 16 33 30 66 30 73 0 8 9 25 20 39 11 14 20 32 20 40 0 8 9 31
19 51 19 35 40 82 98 212 13 30 33 72 44 92 22 43 25 106 5 134 -14 18 -31 19
-500 19 l-485 0 -35 -34 c-20 -19 -36 -40 -36 -45 0 -6 -11 -33 -24 -61 -13
-27 -34 -75 -46 -105 -13 -30 -34 -78 -47 -107 -13 -28 -23 -57 -23 -63 0 -6
-9 -28 -20 -48 -11 -20 -34 -71 -51 -112 -17 -41 -39 -93 -50 -116 -10 -22
-19 -47 -19 -55 0 -8 -7 -23 -16 -34 -8 -11 -19 -38 -25 -60 -6 -22 -17 -47
-24 -55 -7 -8 -17 -28 -21 -45 -4 -16 -15 -46 -24 -65 -35 -70 -59 -126 -70
-162 -6 -21 -16 -40 -20 -43 -5 -3 -14 -24 -20 -47 -26 -93 -71 -138 -140
-138 -51 0 -72 11 -102 52 l-23 33 -5 582 -5 581 -22 31 c-13 17 -23 35 -23
40 0 5 -21 25 -47 43 l-48 33 -330 2 c-181 1 -340 -2 -352 -5z"/>
<path d="M31898 7820 c-47 -14 -103 -66 -131 -122 l-27 -54 2 -2759 3 -2760
32 -46 c17 -25 49 -59 70 -75 l38 -29 350 0 351 0 41 33 c23 18 54 54 70 80
l28 47 0 2760 0 2761 -25 47 c-28 54 -85 104 -133 118 -39 11 -632 10 -669 -1z"/>
<path d="M36053 7819 c-51 -15 -117 -90 -133 -151 -19 -75 -26 -533 -9 -608
22 -99 63 -148 158 -191 64 -29 65 -29 263 -29 227 0 248 -6 268 -78 7 -25 10
-798 10 -2360 l0 -2323 25 -49 c32 -64 15 -62 455 -58 l365 3 38 30 c20 17 50
48 65 69 l27 39 5 2321 5 2321 29 38 c36 47 31 46 271 50 258 4 305 20 376
125 l29 43 0 332 0 332 -29 42 c-36 54 -81 92 -123 104 -43 12 -2052 10 -2095
-2z"/>
<path d="M47213 7823 c-40 -8 -121 -99 -138 -155 -20 -68 -23 -5440 -3 -5528
13 -56 84 -141 133 -160 43 -16 658 -13 698 4 45 18 110 89 124 134 8 27 12
323 12 1127 1 1030 2 1093 19 1138 32 83 56 92 252 92 199 0 228 -8 264 -70
l26 -44 0 -1098 c0 -604 4 -1115 9 -1135 11 -45 49 -93 104 -131 l41 -28 341
3 342 3 47 38 c33 28 55 58 76 104 l30 66 0 2717 0 2717 -29 65 c-21 46 -43
76 -78 104 l-47 39 -346 0 -345 0 -40 -29 c-22 -17 -54 -50 -70 -75 l-30 -46
-5 -1050 -5 -1050 -22 -42 c-34 -62 -82 -75 -270 -71 -124 2 -155 6 -188 23
-74 37 -69 -26 -75 1145 -3 603 -9 1053 -14 1065 -15 32 -54 75 -94 104 l-37
26 -330 1 c-181 1 -340 0 -352 -3z"/>
<path d="M53077 7820 c-43 -13 -90 -58 -119 -114 l-27 -51 0 -2755 0 -2755 27
-52 c31 -59 89 -110 136 -118 17 -3 418 -4 891 -3 l860 3 44 35 c28 23 54 56
72 95 l29 60 0 288 0 288 -27 57 c-33 70 -66 102 -134 130 -50 21 -65 22 -423
22 -404 0 -429 3 -467 52 l-24 33 -3 759 -2 759 26 39 c51 73 49 72 430 78
l341 5 42 29 c23 16 56 50 74 75 l32 46 0 330 0 330 -32 45 c-79 114 -103 120
-483 120 -333 0 -362 4 -400 53 l-25 31 -3 491 c-3 520 -2 543 44 586 l26 24
401 5 c397 5 403 6 452 29 68 33 92 56 126 126 l29 60 0 290 0 290 -29 61
c-19 40 -40 68 -60 80 -17 10 -31 22 -31 26 0 24 -115 28 -920 27 -465 0 -857
-4 -873 -9z"/>
<path d="M58443 7823 c-37 -7 -116 -95 -135 -150 -17 -48 -18 -207 -18 -2782
0 -1755 3 -2737 10 -2749 5 -9 16 -33 24 -53 7 -20 35 -53 61 -75 l48 -39 351
0 351 0 38 30 c20 17 50 48 65 69 l27 39 5 971 5 971 25 34 c35 47 90 63 157
45 28 -8 70 -71 79 -120 4 -22 14 -55 24 -74 10 -19 21 -53 25 -75 3 -21 13
-51 20 -65 7 -14 18 -49 24 -78 6 -30 18 -63 26 -75 8 -12 15 -28 15 -37 0
-15 39 -145 71 -235 10 -27 30 -90 45 -140 15 -49 35 -112 45 -140 33 -94 69
-210 69 -225 1 -8 9 -33 20 -55 11 -22 20 -49 20 -60 0 -11 9 -39 20 -63 10
-23 22 -59 26 -80 3 -20 14 -57 24 -82 9 -25 30 -85 45 -135 15 -49 36 -113
46 -140 11 -28 19 -56 19 -63 0 -29 59 -149 90 -182 l33 -35 286 -3 286 -3 50
32 c28 18 64 53 80 78 l30 46 0 2771 0 2771 -30 48 c-16 26 -50 62 -73 79
l-44 31 -343 0 -343 0 -44 -31 c-23 -18 -56 -54 -73 -80 l-30 -49 -5 -930 c-3
-511 -9 -938 -13 -947 -24 -48 -119 -70 -175 -41 -34 18 -71 89 -88 167 -3 17
-15 50 -25 73 -11 23 -19 48 -19 56 0 7 -11 46 -25 85 -14 39 -25 78 -25 87 0
8 -9 32 -20 52 -11 21 -20 48 -20 61 0 12 -8 39 -19 60 -10 20 -24 61 -30 90
-6 29 -18 66 -26 82 -8 16 -15 39 -15 52 0 13 -9 39 -19 59 -11 20 -23 54 -27
75 -4 22 -13 52 -22 69 -8 16 -21 54 -28 85 -12 53 -25 95 -64 205 -38 108
-52 152 -65 200 -7 28 -20 67 -29 87 -9 21 -16 45 -16 55 0 10 -7 31 -15 47
-8 15 -21 51 -29 80 -44 153 -91 228 -154 246 -35 9 -531 12 -579 3z"/>
<path d="M19365 6461 c-104 -67 -105 -72 -105 -523 0 -355 -1 -369 -20 -388
-19 -19 -33 -20 -408 -20 l-389 0 -46 -31 c-34 -23 -53 -44 -72 -86 l-25 -55
0 -314 c0 -312 0 -314 25 -377 21 -52 33 -67 73 -92 l47 -30 395 -5 c217 -3
401 -9 408 -13 9 -6 12 -95 12 -386 0 -437 1 -446 78 -509 l45 -37 368 0 367
0 44 31 c32 24 50 47 70 95 l27 64 1 366 c0 270 3 368 12 377 9 9 111 12 397
12 l384 0 49 31 c34 22 57 47 76 83 l27 51 0 331 c0 329 0 331 -24 383 -18 36
-38 60 -70 81 l-44 30 -388 0 -388 0 -15 22 c-14 19 -16 73 -16 378 0 400 -7
445 -76 503 -54 46 -68 47 -437 47 -331 0 -354 -1 -382 -19z"/>
</g>
</svg>