<svg xmlns="http://www.w3.org/2000/svg" viewBox="0 0 800 800" fill="currentColor" preserveAspectRatio="xMidYMid meet" aria-label="Selo Comida Pessoas Verdade EAT">
<g transform="translate(0.000000,800.000000) scale(0.100000,-0.100000)"
 stroke="none">
<path d="M3729 6753 c-20 -49 -44 -419 -29 -438 9 -11 33 -15 98 -15 167 0
215 63 211 281 -2 156 -41 197 -187 198 -81 1 -83 0 -93 -26z m196 -64 c38
-38 19 -268 -25 -301 -36 -26 -94 -34 -122 -16 -22 14 -23 19 -16 99 10 131
19 223 24 238 6 20 113 5 139 -20z"/>
<path d="M3261 6759 c-14 -5 -36 -9 -50 -7 -47 4 -121 -14 -131 -31 -15 -29 3
-41 56 -39 l49 3 3 -35 c1 -19 9 -64 17 -100 17 -76 34 -212 28 -222 -2 -5
-19 -8 -37 -8 -18 0 -41 -7 -52 -15 -19 -15 -19 -15 1 -30 22 -17 58 -15 182
12 83 17 104 33 82 59 -7 9 -24 12 -54 7 -26 -3 -45 -1 -49 6 -8 12 -23 93
-36 191 -5 36 -13 80 -19 99 -12 40 -8 51 22 51 13 0 33 7 45 16 51 35 7 69
-57 43z"/>
<path d="M4487 6639 c-8 -5 -68 -88 -134 -185 -65 -97 -122 -183 -128 -191
-10 -13 7 -32 28 -33 10 0 54 46 77 80 l15 22 55 -19 c81 -27 80 -26 80 -104
0 -61 2 -69 19 -69 26 0 31 22 42 200 5 85 12 181 15 213 6 60 -2 81 -35 90
-10 2 -25 0 -34 -4z m3 -158 c0 -21 -3 -59 -6 -84 l-6 -45 -44 16 c-24 9 -44
20 -44 25 0 12 83 127 92 127 4 0 8 -17 8 -39z"/>
<path d="M2646 6591 c-16 -18 -18 -31 -12 -101 4 -44 4 -85 0 -91 -7 -12 -42
24 -71 71 -35 59 -99 76 -121 32 -10 -17 -1 -39 85 -220 19 -40 36 -81 38 -92
7 -38 59 -120 76 -120 5 0 13 9 19 20 9 17 5 33 -24 87 -20 37 -36 74 -36 83
0 8 -9 30 -20 48 -45 73 -20 81 43 12 68 -74 91 -65 80 28 -3 27 -1 56 3 65 9
16 35 -31 98 -178 20 -49 30 -61 50 -63 36 -5 34 26 -4 103 -16 33 -30 65 -30
71 0 6 -13 37 -30 69 -16 32 -30 64 -30 71 0 26 -59 119 -77 122 -11 2 -27 -6
-37 -17z"/>
<path d="M2033 6253 c-13 -2 -41 -21 -63 -42 -37 -35 -40 -41 -40 -92 0 -81
37 -146 146 -254 60 -59 93 -71 152 -56 71 20 122 79 122 143 0 58 -73 174
-166 266 -35 34 -95 48 -151 35z m103 -75 c38 -31 66 -58 57 -58 -4 0 7 -15
24 -32 85 -92 86 -175 3 -216 -53 -27 -141 44 -204 162 -29 54 -32 77 -15 109
32 58 87 72 135 35z"/>
<path d="M1574 5804 c-118 -62 -127 -209 -17 -291 21 -15 48 -37 60 -48 63
-60 182 -88 242 -55 70 37 96 151 52 223 -24 39 -57 49 -68 21 -3 -9 -1 -24 5
-34 24 -38 25 -104 2 -133 -36 -46 -139 -26 -208 40 -10 10 -35 31 -55 48 -34
27 -37 34 -37 81 0 54 13 74 60 92 19 7 33 6 50 -4 42 -22 60 -18 60 15 0 35
-4 39 -60 46 -23 3 -45 7 -49 10 -4 2 -21 -3 -37 -11z"/>
<path d="M5820 5505 c-36 -24 -70 -44 -77 -45 -15 0 -95 -47 -153 -89 -23 -17
-46 -29 -50 -26 -13 8 -41 -31 -34 -49 6 -16 35 -22 48 -9 3 4 13 8 21 9 8 1
27 11 42 22 54 38 65 36 97 -17 63 -107 211 -110 260 -6 17 36 18 74 3 141 -7
28 -68 114 -81 113 -6 0 -40 -20 -76 -44z m93 -82 c23 -40 23 -50 1 -99 -16
-33 -59 -60 -69 -44 -4 6 -15 10 -26 10 -30 0 -66 45 -65 80 1 16 6 31 11 32
6 1 28 14 49 30 52 38 72 36 99 -9z"/>
<path d="M6115 4923 c-22 -8 -53 -17 -69 -19 -32 -4 -92 -22 -117 -34 -29 -15
-104 -33 -122 -31 -49 7 -80 -45 -55 -92 11 -21 26 -73 32 -112 7 -49 18 -65
42 -65 33 0 39 21 20 72 -9 24 -17 66 -19 93 -2 47 -1 50 22 47 13 -1 29 2 35
7 6 5 25 12 41 15 29 6 32 5 48 -42 10 -27 17 -53 16 -58 -1 -5 1 -18 5 -29 5
-11 10 -26 12 -32 5 -19 44 -16 51 4 3 9 1 34 -6 57 -7 23 -14 54 -16 69 -2
16 -6 31 -9 34 -11 11 27 43 50 43 12 0 34 4 48 10 24 9 27 6 40 -25 8 -19 17
-49 20 -68 9 -58 24 -87 45 -87 36 0 42 22 21 81 -11 29 -20 63 -20 74 0 10
-7 39 -16 62 -19 48 -31 51 -99 26z"/>
<path d="M4580 4825 c-19 -7 -45 -14 -58 -14 -12 -1 -64 -14 -114 -31 -50 -16
-102 -30 -116 -30 -14 0 -33 -7 -42 -15 -16 -15 -16 -21 8 -93 15 -42 31 -80
36 -84 5 -3 27 1 48 9 36 14 40 14 58 -2 11 -10 19 -23 18 -29 -1 -6 8 -42 21
-80 12 -38 24 -81 26 -95 2 -14 10 -46 18 -71 19 -56 31 -103 29 -111 -1 -4
12 -44 28 -90 16 -46 27 -86 24 -90 -2 -4 3 -23 11 -42 17 -41 60 -53 114 -31
19 8 40 13 47 10 7 -3 17 1 24 8 12 15 4 56 -36 189 -13 43 -24 87 -24 97 0
11 -6 34 -14 52 -21 50 -36 102 -36 124 0 11 -9 44 -20 74 -11 30 -22 68 -24
85 -3 16 -8 40 -11 53 -6 19 -4 22 18 22 75 0 96 44 65 132 -25 71 -36 77 -98
53z"/>
<path d="M3501 4529 c-120 -40 -123 -45 -101 -169 6 -36 13 -91 15 -123 2 -32
8 -73 14 -90 6 -18 13 -68 16 -112 3 -44 12 -107 19 -140 8 -33 13 -71 13 -85
0 -26 19 -135 32 -180 5 -18 13 -24 27 -22 10 2 36 5 56 7 20 2 51 11 69 20
30 16 31 18 24 63 -15 99 -13 114 19 125 31 10 42 2 52 -43 20 -91 56 -112
140 -81 73 28 76 68 13 193 -16 32 -29 63 -29 70 0 7 -13 38 -30 68 -16 30
-29 61 -30 67 0 7 -14 43 -31 80 -17 38 -33 76 -35 87 -2 10 -12 32 -22 50
-10 17 -29 58 -42 91 -30 77 -78 155 -93 154 -7 -1 -50 -14 -96 -30z m96 -366
c-3 -10 -5 -4 -5 12 0 17 2 24 5 18 2 -7 2 -21 0 -30z m43 -80 c7 -27 17 -52
21 -57 14 -16 10 -26 -10 -26 -26 0 -28 5 -37 79 -8 75 6 77 26 4z"/>
<path d="M982 4483 c-18 -48 -25 -205 -10 -225 14 -19 103 -33 303 -48 160
-11 161 -11 169 62 3 34 6 90 6 124 0 57 -2 64 -20 64 -25 0 -36 -22 -44 -95
-12 -109 -9 -105 -80 -98 -82 8 -85 11 -74 80 14 91 8 128 -22 128 -30 0 -38
-24 -39 -117 -1 -37 -4 -69 -8 -71 -5 -2 -36 -2 -71 1 l-63 4 2 94 c1 63 -3
99 -11 109 -18 21 -26 19 -38 -12z"/>
<path d="M2660 4300 c-8 -5 -40 -17 -70 -26 -30 -9 -65 -20 -78 -25 -13 -5
-32 -9 -43 -9 -11 0 -32 -6 -48 -14 -26 -14 -27 -17 -20 -63 4 -26 16 -73 28
-103 11 -30 21 -64 21 -75 0 -11 9 -45 20 -75 11 -30 22 -68 24 -85 2 -16 13
-57 25 -91 11 -33 23 -75 26 -92 3 -17 17 -63 31 -102 14 -39 23 -74 19 -79
-3 -5 4 -30 14 -55 19 -42 22 -45 53 -42 40 4 104 21 179 47 30 10 66 19 80
19 47 1 62 23 54 82 -13 95 -54 131 -113 99 -9 -5 -37 -10 -61 -12 -42 -4 -44
-3 -56 31 -22 65 -27 130 -9 130 9 0 30 6 47 14 18 8 41 16 52 18 24 4 26 56
6 130 -18 64 -34 67 -141 26 -20 -8 -28 -6 -42 12 -15 18 -22 45 -17 63 0 1
-4 14 -9 28 -11 28 -4 33 108 71 40 14 45 18 43 44 -5 65 -16 114 -27 122 -18
15 -80 22 -96 12z"/>
<path d="M5907 4276 c-14 -13 -28 -22 -30 -20 -9 9 -37 -65 -37 -95 0 -37 29
-98 58 -124 26 -23 124 -38 154 -23 31 16 67 72 74 117 15 91 69 124 128 78
32 -25 33 -55 4 -96 -24 -32 -26 -33 -58 -33 -15 0 -20 -7 -20 -25 0 -23 4
-25 43 -25 69 0 102 41 103 128 2 62 -1 69 -29 100 -28 29 -37 32 -86 32 -78
0 -106 -24 -130 -114 -23 -84 -55 -121 -97 -112 -46 11 -65 31 -71 75 -7 53
15 86 67 102 32 10 40 17 40 36 0 34 -76 34 -113 -1z"/>
<path d="M1155 3884 c-27 -8 -56 -12 -62 -9 -16 5 -77 -54 -99 -96 -17 -35
-20 -73 -9 -139 13 -78 18 -82 83 -75 31 4 71 10 87 15 17 5 59 11 95 14 58 5
100 12 193 32 l29 7 -7 76 c-7 80 -23 117 -70 161 -23 22 -36 25 -108 27 -46
1 -104 -5 -132 -13z m191 -50 c25 -7 55 -66 57 -114 2 -30 -1 -33 -43 -45 -63
-18 -292 -47 -302 -37 -4 4 -10 32 -14 63 -8 70 18 107 81 115 22 2 60 8 85
13 56 11 108 12 136 5z"/>
<path d="M5860 3708 c-55 -38 -72 -69 -72 -132 -1 -94 57 -156 148 -156 24 0
44 11 78 43 25 23 46 46 46 50 0 4 12 25 26 47 48 72 133 46 118 -36 -8 -48
-30 -74 -61 -74 -59 0 -83 -41 -38 -62 20 -9 34 -9 63 1 97 35 128 119 76 208
-58 98 -158 91 -214 -15 -38 -73 -64 -96 -105 -95 -49 1 -74 32 -75 90 0 51
38 88 81 79 19 -3 32 1 44 14 24 26 12 50 -24 50 -16 0 -36 2 -43 5 -8 3 -29
-5 -48 -17z"/>
<path d="M1479 3352 c-24 -20 -64 -51 -88 -67 -24 -16 -62 -48 -85 -70 -22
-23 -62 -56 -88 -75 -52 -36 -65 -59 -49 -88 12 -22 82 -23 221 -2 41 6 109
14 150 17 96 7 135 25 117 54 -11 18 -18 20 -72 14 -71 -7 -84 2 -110 75 l-15
43 39 36 c50 46 68 80 50 92 -21 13 -23 12 -70 -29z m-61 -154 c5 -7 12 -26
14 -42 3 -25 -1 -31 -32 -42 -41 -15 -120 -18 -120 -5 0 9 108 99 121 100 4 1
11 -5 17 -11z"/>
<path d="M5658 3159 c-10 -5 -31 -30 -48 -54 -69 -100 -24 -193 132 -268 110
-54 174 -65 221 -39 126 67 123 203 -6 289 -34 23 -80 47 -102 54 -22 7 -44
17 -49 21 -14 11 -128 9 -148 -3z m182 -83 c128 -62 164 -97 150 -145 -24 -84
-70 -110 -137 -77 -15 8 -54 27 -87 43 -64 31 -108 70 -117 105 -7 28 9 79 30
96 24 19 98 9 161 -22z"/>
<path d="M1692 2808 c-7 -7 -12 -8 -12 -4 0 10 -56 -31 -137 -101 -78 -68 -95
-109 -68 -175 9 -24 17 -45 17 -48 0 -3 19 -26 41 -52 42 -50 66 -59 87 -33 7
8 18 15 24 15 6 0 47 29 91 65 44 36 84 65 89 65 10 0 106 87 119 106 13 21
-12 67 -66 122 -51 51 -52 52 -112 52 -34 0 -66 -5 -73 -12z m140 -85 c21 -20
38 -45 38 -54 0 -17 -53 -69 -70 -69 -10 0 -122 -87 -162 -126 l-26 -26 -42
38 c-39 36 -42 41 -37 80 3 34 14 52 53 91 113 113 180 131 246 66z"/>
<path d="M5379 2737 c-3 -26 3 -43 27 -78 32 -47 30 -67 -14 -117 -43 -49 -50
-50 -117 -17 -29 14 -53 21 -59 15 -14 -14 2 -60 22 -60 9 0 28 -9 42 -20 14
-11 31 -20 38 -20 6 0 12 -4 12 -10 0 -5 7 -10 15 -10 8 0 23 -4 33 -9 9 -5
44 -21 77 -36 33 -15 82 -38 108 -51 77 -38 91 -34 85 24 -3 34 -17 65 -49
113 -24 36 -53 81 -64 99 -60 100 -72 118 -94 147 -25 33 -60 50 -62 30z m119
-219 c11 -13 25 -34 31 -48 6 -14 16 -33 23 -42 22 -31 1 -30 -65 1 -77 37
-83 47 -49 84 31 33 33 33 60 5z"/>
<path d="M2119 2418 c0 -18 -6 -60 -13 -93 l-13 -60 -44 -8 c-24 -5 -50 -9
-57 -9 -14 -1 -51 -48 -77 -97 -30 -60 15 -143 113 -206 l43 -28 19 21 c11 11
54 67 96 124 42 57 82 108 88 113 6 6 28 31 49 57 34 41 37 49 25 67 -18 29
-21 27 -59 -21 -65 -81 -79 -91 -105 -77 -33 17 -38 41 -20 94 17 49 23 125
12 143 -4 7 -18 12 -32 12 -20 0 -24 -5 -25 -32z m7 -254 c44 -34 43 -39 -15
-103 -56 -62 -73 -62 -115 -3 -49 71 -28 128 49 130 36 2 54 -4 81 -24z"/>
<path d="M4950 2302 c-65 -20 -101 -45 -121 -83 -36 -71 -14 -148 54 -190 36
-22 121 -19 185 8 76 32 125 -60 59 -111 -44 -34 -63 -33 -97 4 -31 33 -60 32
-60 -4 1 -39 33 -68 76 -69 21 0 44 -4 50 -9 14 -10 70 27 95 62 9 14 20 46
24 71 5 42 3 49 -27 83 -30 34 -37 37 -89 37 -31 1 -69 -6 -85 -14 -57 -29
-127 -2 -139 54 -9 40 0 61 36 82 41 23 84 22 109 -3 43 -43 85 -10 50 40 -23
32 -84 53 -120 42z"/>
<path d="M2594 2116 c-3 -9 -1 -23 6 -32 13 -14 92 -54 138 -68 23 -8 32 -49
13 -61 -5 -3 -12 -19 -16 -35 -10 -45 -30 -51 -94 -27 -31 12 -57 25 -59 29
-2 4 -17 8 -33 8 -24 0 -29 -4 -29 -24 0 -30 10 -37 88 -66 62 -22 71 -34 53
-68 -5 -9 -17 -34 -27 -54 -10 -21 -22 -38 -26 -38 -4 0 -39 16 -77 36 -77 39
-115 40 -109 1 2 -16 22 -29 83 -55 44 -18 82 -37 83 -43 2 -5 19 -9 38 -9 31
0 37 4 50 38 20 48 111 254 136 309 35 74 28 85 -94 138 -81 36 -116 42 -124
21z"/>
<path d="M3207 1898 c-7 -13 -21 -36 -30 -53 -10 -16 -32 -59 -49 -95 -17 -36
-35 -66 -39 -68 -5 -2 -9 -7 -9 -12 0 -5 -16 -43 -35 -84 -43 -94 -44 -106 -6
-106 30 0 48 30 161 273 35 75 51 62 55 -46 10 -243 25 -301 71 -283 14 5 16
15 9 64 -4 31 -7 71 -6 87 1 17 -4 62 -10 100 -7 39 -12 95 -13 125 -2 80 -21
120 -57 120 -19 0 -33 -7 -42 -22z"/>
</g>
</svg>